<svg width="14" height="13" viewBox="0 0 14 13" fill="none" xmlns="http://www.w3.org/2000/svg">
<path d="M3.22284 9.82091C3.07956 9.65015 3.08803 9.40256 3.23392 9.24208L3.27711 9.2006L10.0229 3.54018C10.2092 3.38388 10.4869 3.40817 10.6432 3.59446C10.7865 3.76521 10.778 4.01281 10.6322 4.17328L10.589 4.21477L3.84315 9.87518C3.65687 10.0315 3.37915 10.0072 3.22284 9.82091Z" fill="#3FFF00"/>
<path d="M5.2747 3.88994C5.03241 3.86926 4.85275 3.65609 4.87343 3.4138C4.89222 3.19353 5.0701 3.02503 5.28433 3.01175L5.34956 3.01252L10.3436 3.43861C10.5645 3.45746 10.7333 3.6363 10.7458 3.85118L10.7447 3.9166L10.2975 8.90921C10.2758 9.15141 10.0619 9.33016 9.81967 9.30847C9.59949 9.28875 9.43174 9.11015 9.41936 8.89587L9.42041 8.83064L9.82791 4.27839L5.2747 3.88994Z" fill="#3FFF00"/>
</svg>
