<svg width="25" height="25" viewBox="0 0 25 25" fill="none" xmlns="http://www.w3.org/2000/svg">
<rect x="0.792969" y="0.304688" width="24.0527" height="24.0527" rx="1.60351" fill="#5536DA"/>
<path d="M19.2363 18.7383V17.1348C19.2363 16.2842 18.8984 15.4685 18.297 14.8671C17.6956 14.2656 16.8798 13.9277 16.0293 13.9277H9.61523C8.76467 13.9277 7.94895 14.2656 7.34752 14.8671C6.74608 15.4685 6.4082 16.2842 6.4082 17.1348V18.7383" stroke="white" stroke-width="1.20263" stroke-linecap="round" stroke-linejoin="round"/>
<path d="M12.8242 10.7246C14.5954 10.7246 16.0312 9.28876 16.0312 7.51757C16.0312 5.74638 14.5954 4.31055 12.8242 4.31055C11.053 4.31055 9.61719 5.74638 9.61719 7.51757C9.61719 9.28876 11.053 10.7246 12.8242 10.7246Z" stroke="white" stroke-width="1.20263" stroke-linecap="round" stroke-linejoin="round"/>
</svg>
