<svg width="41" height="41" viewBox="0 0 41 41" fill="none" xmlns="http://www.w3.org/2000/svg">
<rect x="0.609375" y="0.433594" width="40.2676" height="40.2676" rx="20.1338" fill="#2F2F2F"/>
<path opacity="0.35" d="M29.5561 30.4852H19.6387V12.8543C19.6387 11.6366 20.6249 10.6504 21.8425 10.6504H28.4541C29.6718 10.6504 30.658 11.6366 30.658 12.8543V29.3833C30.658 29.9915 30.1643 30.4852 29.5561 30.4852Z" fill="#5F6866"/>
<path d="M22.5 16.3867H11.5V29.3867H22.5V16.3867Z" fill="white"/>
<path d="M28.4539 15.0574H26.25V12.8535H28.4539V15.0574Z" fill="white"/>
<path d="M24.0437 15.0574H21.8398V12.8535H24.0437V15.0574Z" fill="#5F6866"/>
<path d="M28.4539 19.4656H26.25V17.2617H28.4539V19.4656Z" fill="white"/>
<path d="M24.0437 19.4656H21.8398V17.2617H24.0437V19.4656Z" fill="#5F6866"/>
<path d="M28.4539 23.8738H26.25V21.6699H28.4539V23.8738Z" fill="white"/>
<path d="M24.0437 23.8738H21.8398V21.6699H24.0437V23.8738Z" fill="#5F6866"/>
<path d="M28.4539 28.282H26.25V26.0781H28.4539V28.282Z" fill="white"/>
<path d="M24.0437 28.282H21.8398V26.0781H24.0437V28.282Z" fill="#5F6866"/>
<path d="M21 14.3867H14C12.0662 14.3867 10.5 15.3414 10.5 16.5201V29.3201C10.5 29.9089 11.284 30.3867 12.25 30.3867H24.5V16.5201C24.5 15.3414 22.9338 14.3867 21 14.3867ZM21 28.2534H14V26.1201H21V28.2534ZM21 23.9867H14V21.8534H21V23.9867ZM21 19.7201H14V17.5867H21V19.7201Z" fill="#5F6866"/>
</svg>
