<svg width="33" height="33" viewBox="0 0 33 33" fill="none" xmlns="http://www.w3.org/2000/svg">
<rect width="32.2676" height="32.2676" rx="16.1338" fill="#2F2F2F"/>
<path opacity="0.35" d="M23.1951 24.0817H15.248V9.95352C15.248 8.9778 16.0383 8.1875 17.0141 8.1875H22.3121C23.2879 8.1875 24.0782 8.9778 24.0782 9.95352V23.1987C24.0782 23.6861 23.6826 24.0817 23.1951 24.0817Z" fill="#3FFF00"/>
<path d="M17.5412 12.7852H8.72656V23.2024H17.5412V12.7852Z" fill="#3FFF00"/>
<path d="M22.3129 11.7191H20.5469V9.95312H22.3129V11.7191Z" fill="#3FFF00"/>
<path d="M18.7797 11.7191H17.0137V9.95312H18.7797V11.7191Z" fill="#3FFF00"/>
<path d="M22.3129 15.2504H20.5469V13.4844H22.3129V15.2504Z" fill="#3FFF00"/>
<path d="M18.7797 15.2504H17.0137V13.4844H18.7797V15.2504Z" fill="#5F6866"/>
<path d="M22.3129 18.7836H20.5469V17.0176H22.3129V18.7836Z" fill="#3FFF00"/>
<path d="M18.7797 18.7836H17.0137V17.0176H18.7797V18.7836Z" fill="#5F6866"/>
<path d="M22.3129 22.3168H20.5469V20.5508H22.3129V22.3168Z" fill="#3FFF00"/>
<path d="M18.7797 22.3168H17.0137V20.5508H18.7797V22.3168Z" fill="#5F6866"/>
<path d="M16.3397 11.1816H10.7304C9.18086 11.1816 7.92578 11.9466 7.92578 12.8911V23.1482C7.92578 23.62 8.55402 24.0029 9.32811 24.0029H19.1444V12.8911C19.1444 11.9466 17.8893 11.1816 16.3397 11.1816ZM16.3397 22.2934H10.7304V20.5839H16.3397V22.2934ZM16.3397 18.8744H10.7304V17.1649H16.3397V18.8744ZM16.3397 15.4554H10.7304V13.7459H16.3397V15.4554Z" fill="#35781F"/>
</svg>
