<svg width="31" height="31" viewBox="0 0 31 31" fill="none" xmlns="http://www.w3.org/2000/svg">
<ellipse cx="15.5668" cy="15.5863" rx="14.9808" ry="15.1605" fill="#09977C" fill-opacity="0.1"/>
<ellipse cx="15.3255" cy="15.1605" rx="15.3255" ry="15.1605" fill="#2F2F2F"/>
<path d="M22.3265 9.79663C21.9432 9.40747 21.3759 9.26249 20.847 9.4151L8.51251 12.9633C7.95443 13.1167 7.55887 13.557 7.45231 14.1163C7.34346 14.6855 7.72369 15.4081 8.22044 15.7103L12.0772 18.0552C12.4727 18.2955 12.9833 18.2352 13.3106 17.9087L17.7269 13.5127C17.9492 13.2838 18.3172 13.2838 18.5395 13.5127C18.7618 13.734 18.7618 14.0926 18.5395 14.3215L14.1155 18.7183C13.7874 19.0441 13.7261 19.5515 13.9676 19.9452L16.3241 23.7987C16.6 24.2565 17.0753 24.5159 17.5966 24.5159C17.6579 24.5159 17.7269 24.5159 17.7883 24.5083C18.3862 24.432 18.8615 24.0276 19.0378 23.4553L22.6944 11.2693C22.8554 10.7504 22.7098 10.1858 22.3265 9.79663Z" fill="#3FFF00"/>
</svg>
