<svg width="42" height="42" viewBox="0 0 42 42" fill="none" xmlns="http://www.w3.org/2000/svg">
<ellipse cx="21.4645" cy="21.3353" rx="19.8531" ry="20.0912" fill="#09977C" fill-opacity="0.1"/>
<ellipse cx="21.1459" cy="20.7709" rx="20.31" ry="20.0912" fill="#2F2F2F"/>
<path d="M30.4221 13.6608C29.9142 13.1451 29.1624 12.9529 28.4614 13.1552L12.1154 17.8574C11.3758 18.0607 10.8516 18.6441 10.7104 19.3854C10.5661 20.1397 11.07 21.0974 11.7283 21.4978L16.8394 24.6053C17.3636 24.9239 18.0402 24.844 18.474 24.4112L24.3267 18.5855C24.6213 18.2821 25.1089 18.2821 25.4035 18.5855C25.6981 18.8787 25.6981 19.354 25.4035 19.6574L19.5407 25.4841C19.1059 25.9159 19.0246 26.5883 19.3446 27.1101L22.4675 32.2168C22.8333 32.8236 23.4631 33.1674 24.154 33.1674C24.2352 33.1674 24.3267 33.1674 24.4079 33.1573C25.2003 33.0561 25.8302 32.5202 26.0639 31.7618L30.9098 15.6125C31.1231 14.9248 30.9301 14.1765 30.4221 13.6608Z" fill="white"/>
</svg>
