<svg width="12" height="12" viewBox="0 0 12 12" fill="none" xmlns="http://www.w3.org/2000/svg">
<g id="Group">
<path id="Vector" d="M7.67969 5.08789C7.67969 4.99672 7.7159 4.90929 7.78037 4.84482C7.84483 4.78036 7.93227 4.74414 8.02344 4.74414H8.71094C8.80211 4.74414 8.88954 4.78036 8.95401 4.84482C9.01847 4.90929 9.05469 4.99672 9.05469 5.08789V5.77539C9.05469 5.86656 9.01847 5.95399 8.95401 6.01846C8.88954 6.08292 8.80211 6.11914 8.71094 6.11914H8.02344C7.93227 6.11914 7.84483 6.08292 7.78037 6.01846C7.7159 5.95399 7.67969 5.86656 7.67969 5.77539V5.08789Z" fill="#232323"/>
<path id="Vector_2" d="M5.61719 5.08789C5.61719 4.99672 5.6534 4.90929 5.71787 4.84482C5.78233 4.78036 5.86977 4.74414 5.96094 4.74414H6.64844C6.73961 4.74414 6.82704 4.78036 6.89151 4.84482C6.95597 4.90929 6.99219 4.99672 6.99219 5.08789V5.77539C6.99219 5.86656 6.95597 5.95399 6.89151 6.01846C6.82704 6.08292 6.73961 6.11914 6.64844 6.11914H5.96094C5.86977 6.11914 5.78233 6.08292 5.71787 6.01846C5.6534 5.95399 5.61719 5.86656 5.61719 5.77539V5.08789Z" fill="#232323"/>
<path id="Vector_3" d="M2.52344 0.617188C2.61461 0.617188 2.70204 0.653404 2.76651 0.71787C2.83097 0.782335 2.86719 0.869769 2.86719 0.960938V1.30469H8.36719V0.960938C8.36719 0.869769 8.4034 0.782335 8.46787 0.71787C8.53234 0.653404 8.61977 0.617188 8.71094 0.617188C8.80211 0.617188 8.88954 0.653404 8.95401 0.71787C9.01847 0.782335 9.05469 0.869769 9.05469 0.960938V1.30469H9.74219C10.1069 1.30469 10.4566 1.44955 10.7145 1.70742C10.9723 1.96528 11.1172 2.31501 11.1172 2.67969V10.2422C11.1172 10.6069 10.9723 10.9566 10.7145 11.2145C10.4566 11.4723 10.1069 11.6172 9.74219 11.6172H1.49219C1.12751 11.6172 0.777778 11.4723 0.519916 11.2145C0.262053 10.9566 0.117188 10.6069 0.117188 10.2422V2.67969C0.117188 2.31501 0.262053 1.96528 0.519916 1.70742C0.777778 1.44955 1.12751 1.30469 1.49219 1.30469H2.17969V0.960938C2.17969 0.869769 2.2159 0.782335 2.28037 0.71787C2.34484 0.653404 2.43227 0.617188 2.52344 0.617188V0.617188ZM0.804688 3.36719V10.2422C0.804688 10.4245 0.87712 10.5994 1.00605 10.7283C1.13498 10.8573 1.30985 10.9297 1.49219 10.9297H9.74219C9.92452 10.9297 10.0994 10.8573 10.2283 10.7283C10.3573 10.5994 10.4297 10.4245 10.4297 10.2422V3.36719H0.804688Z" fill="#D6D6D6"/>
</g>
</svg>
