<svg width="47" height="47" viewBox="0 0 47 47" fill="none" xmlns="http://www.w3.org/2000/svg">
<path opacity="0.35" d="M34.914 44.8916H11.5125C8.28113 44.8916 5.66211 42.2726 5.66211 39.0412V17.5898H40.7644V39.0412C40.7644 42.2726 38.1454 44.8916 34.914 44.8916Z" fill="#3FFF00"/>
<path d="M40.7644 17.5896H5.66211V15.6394C5.66211 12.4081 8.28113 9.78906 11.5125 9.78906H34.914C38.1454 9.78906 40.7644 12.4081 40.7644 15.6394V17.5896Z" fill="#3FFF00"/>
<path d="M22.5017 37.6974C22.037 37.6974 21.5723 37.5195 21.2183 37.1656L15.7726 31.7198C15.0628 31.0101 15.0628 29.8628 15.7726 29.1531C16.4823 28.4433 17.6296 28.4433 18.3393 29.1531L22.5017 33.3154L30.2945 25.5226C31.0043 24.8128 32.1516 24.8128 32.8613 25.5226C33.5711 26.2323 33.5711 27.3796 32.8613 28.0893L23.7851 37.1656C23.4311 37.5195 22.9664 37.6974 22.5017 37.6974Z" fill="#3FFF00"/>
</svg>
