<svg width="17" height="18" viewBox="0 0 17 18" fill="none" xmlns="http://www.w3.org/2000/svg">
<path d="M8.5 15.3898C12.24 15.3898 15.3 12.3298 15.3 8.58984C15.3 4.84984 12.24 1.78984 8.5 1.78984C4.76 1.78984 1.7 4.84984 1.7 8.58984C1.7 12.3298 4.76 15.3898 8.5 15.3898ZM8.5 0.0898438C13.175 0.0898438 17 3.91484 17 8.58984C17 13.2648 13.175 17.0898 8.5 17.0898C3.825 17.0898 0 13.2648 0 8.58984C0 3.91484 3.825 0.0898438 8.5 0.0898438ZM8.925 4.33984V8.75984L6.63 12.8398L5.525 12.1598L7.65 8.41984V4.33984H8.925Z" fill="#3FFF00"/>
</svg>
