<svg width="12" height="12" viewBox="0 0 12 12" fill="none" xmlns="http://www.w3.org/2000/svg">
<path id="Vector" d="M5.61719 10.443C8.03719 10.443 10.0172 8.46297 10.0172 6.04297C10.0172 3.62297 8.03719 1.64297 5.61719 1.64297C3.19719 1.64297 1.21719 3.62297 1.21719 6.04297C1.21719 8.46297 3.19719 10.443 5.61719 10.443ZM5.61719 0.542969C8.64219 0.542969 11.1172 3.01797 11.1172 6.04297C11.1172 9.06797 8.64219 11.543 5.61719 11.543C2.59219 11.543 0.117188 9.06797 0.117188 6.04297C0.117188 3.01797 2.59219 0.542969 5.61719 0.542969ZM5.89219 3.29297V6.15297L4.40719 8.79297L3.69219 8.35297L5.06719 5.93297V3.29297H5.89219Z" fill="#D6D6D6"/>
</svg>
