<svg width="41" height="41" viewBox="0 0 41 41" fill="none" xmlns="http://www.w3.org/2000/svg">
<rect x="0.330078" y="0.511719" width="40.1118" height="40.1118" rx="20.0559" fill="#2F2F2F"/>
<path d="M26.0088 9.81836L9.87069 25.9342C9.54653 26.2584 9.32999 26.6744 9.25256 27.1258L8.59244 30.9553C8.4494 31.7834 9.16989 32.5039 9.9993 32.3595L13.7842 31.7007C14.233 31.622 14.6477 31.4081 14.9705 31.0866L31.1336 14.9431L26.0088 9.81836Z" fill="white"/>
<path d="M30.9431 15.1353L31.1361 14.9436C32.5508 13.5289 32.5508 11.2336 31.1361 9.81886C29.7213 8.40413 27.426 8.40413 26.0113 9.81886L25.8184 10.0105L30.9431 15.1353Z" fill="#5F6866"/>
<path d="M31.4274 26.044L14.91 9.52653C13.885 8.50157 12.2236 8.50157 11.1986 9.52653L9.34294 11.3822C8.31798 12.4072 8.31798 14.0686 9.34294 15.0936L25.8604 31.611C26.8853 32.636 28.5468 32.636 29.5717 31.611L31.4274 29.7553C32.4524 28.7304 32.4524 27.0689 31.4274 26.044Z" fill="#BABABA"/>
<path d="M23.688 12.1367L9.87144 25.9362C9.54729 26.2604 9.33075 26.6764 9.25332 27.1279L8.99609 28.6187L12.3334 31.9561L13.7836 31.7041C14.2324 31.6253 14.6471 31.4114 14.97 31.0899L28.8154 17.2615L23.688 12.1367Z" fill="#5F6866"/>
</svg>
