<svg width="32" height="32" viewBox="0 0 32 32" fill="none" xmlns="http://www.w3.org/2000/svg">
<rect width="31.2238" height="31.2238" rx="15.6119" fill="#2F2F2F"/>
<path opacity="0.35" d="M19.9894 7.24414L7.42717 19.789C7.17484 20.0413 7.00628 20.3652 6.94601 20.7166L6.43216 23.6975C6.32081 24.3421 6.88165 24.903 7.52728 24.7906L10.4735 24.2778C10.8229 24.2165 11.1457 24.05 11.397 23.7997L23.9786 11.2334L19.9894 7.24414Z" fill="#3FFF00"/>
<path d="M18.1826 9.04688L7.42748 19.7887C7.17515 20.041 7.00659 20.3648 6.94632 20.7163L6.74609 21.8768L9.34395 24.4746L10.4728 24.2785C10.8222 24.2172 11.145 24.0507 11.3963 23.8004L22.1738 13.0361L18.1826 9.04688Z" fill="#3FFF00"/>
<path d="M23.831 11.3823L23.9812 11.2331C25.0824 10.1319 25.0824 8.34516 23.9812 7.24391C22.8799 6.14266 21.0932 6.14266 19.992 7.24391L19.8418 7.39306L23.831 11.3823Z" fill="#3FFF00"/>
<path opacity="0.35" d="M24.2073 19.8738L11.3499 7.01635C10.552 6.21851 9.2587 6.21851 8.46085 7.01635L7.01635 8.46085C6.21851 9.2587 6.21851 10.552 7.01635 11.3499L19.8738 24.2073C20.6717 25.0052 21.965 25.0052 22.7628 24.2073L24.2073 22.7628C25.0052 21.965 25.0052 20.6717 24.2073 19.8738Z" fill="#3FFF00"/>
</svg>
