<svg width="28" height="28" viewBox="0 0 28 28" fill="none" xmlns="http://www.w3.org/2000/svg">
<path opacity="0.4" d="M13.9751 25.4268C13.0896 25.4268 12.2052 25.0906 11.5293 24.4192L10.6887 23.5786C10.3628 23.2539 9.92639 23.0743 9.46349 23.0731H8.2809C6.36942 23.0731 4.81374 21.5175 4.81374 19.606V18.4222C4.81259 17.9605 4.63296 17.5241 4.30709 17.1959L3.48031 16.3703C2.12615 15.0242 2.12039 12.8237 3.46765 11.4684L4.30824 10.6266C4.63296 10.3007 4.81259 9.86432 4.81374 9.40142V8.21999C4.81374 6.30735 6.36942 4.75168 8.2809 4.75168H9.46464C9.92639 4.75168 10.3617 4.57204 10.6898 4.24387L11.5178 3.41824C12.8639 2.06409 15.0632 2.05718 16.4197 3.40558L17.2603 4.24617C17.5873 4.57204 18.0226 4.75168 18.4843 4.75168H19.6681C21.5795 4.75168 23.1352 6.30735 23.1352 8.21999V9.40257C23.1364 9.86432 23.316 10.3007 23.6419 10.6289L24.4686 11.4557C25.1238 12.1074 25.4866 12.9757 25.49 13.9026C25.4923 14.8238 25.1377 15.6909 24.4917 16.3461C24.4802 16.3576 24.4698 16.3703 24.4583 16.3806L23.6407 17.1982C23.316 17.5241 23.1364 17.9605 23.1352 18.4234V19.606C23.1352 21.5175 21.5795 23.0731 19.6681 23.0731H18.4843C18.0226 23.0743 17.5861 23.2539 17.2591 23.5798L16.4312 24.4066C15.7564 25.086 14.8652 25.4268 13.9751 25.4268" fill="#393939"/>
<path fill-rule="evenodd" clip-rule="evenodd" d="M11.7227 11.669C11.5327 11.859 11.2863 11.9614 11.0134 11.9614C10.7578 11.9614 10.5068 11.8567 10.3052 11.6678C10.1141 11.4778 10.0059 11.2176 10.0059 10.9539C10.0059 10.7029 10.1118 10.4449 10.2983 10.2457C10.4008 10.1421 10.5229 10.0638 10.6449 10.0223C10.9927 9.86341 11.4544 9.95668 11.7285 10.2446C11.8264 10.3424 11.9012 10.4495 11.9507 10.5612C12.0049 10.681 12.0325 10.8169 12.0325 10.9539C12.0325 11.2279 11.9231 11.4824 11.7227 11.669ZM17.6502 10.2406C17.2575 9.84912 16.6185 9.84912 16.2258 10.2406L10.3071 16.1593C9.91444 16.552 9.91444 17.1911 10.3071 17.5849C10.4983 17.7749 10.7504 17.8797 11.0199 17.8797C11.2893 17.8797 11.5415 17.7749 11.7315 17.5849L17.6502 11.6662C18.0429 11.2724 18.0429 10.6344 17.6502 10.2406ZM17.3229 15.9447C16.9498 15.7881 16.5077 15.8733 16.2129 16.1681C16.1518 16.2395 16.0655 16.3501 16.0068 16.4802C15.9446 16.6207 15.9365 16.7715 15.9365 16.8728C15.9365 16.9742 15.9446 17.1239 16.0068 17.2643C16.0643 17.3933 16.1334 17.4981 16.2244 17.5891C16.4328 17.7825 16.6746 17.8804 16.9441 17.8804C17.1997 17.8804 17.4507 17.7768 17.6569 17.5845C17.8399 17.4014 17.9401 17.148 17.9401 16.8728C17.9401 16.5965 17.8399 16.3443 17.6557 16.1601C17.5544 16.0599 17.4323 15.9816 17.3229 15.9447Z" fill="#3FFF00"/>
</svg>
