<svg width="15" height="13" viewBox="0 0 15 13" fill="none" xmlns="http://www.w3.org/2000/svg">
<g clip-path="url(#clip0_1140_3450)">
<path d="M13.5452 5.96019L10.1563 9.34916V13.1855C10.1071 13.1855 10.1071 13.1855 9.57339 13.1855C9.03966 13.1855 9.39558 13.1855 9.03966 13.1855C8.68374 13.1855 8.50593 13.1855 7.97221 13.1855C7.97221 13.1855 7.97221 13.1855 7.5565 13.1855H6.90475H6.37102H5.83729C5.83729 13.1855 5.70146 13.1855 5.34554 13.1855C4.98962 13.1855 4.76983 13.1855 4.76983 13.1855H4.21395V9.34916L0.82497 5.96019C0.608323 5.74354 0.5 5.48047 0.5 5.17098C0.5 4.86148 0.608323 4.59841 0.82497 4.38176C1.04935 4.16512 1.31436 4.05679 1.61999 4.05679C1.92561 4.05679 2.18675 4.16512 2.4034 4.38176L5.04958 7.02795H9.32062L11.9668 4.38176C12.1835 4.16512 12.4465 4.05679 12.756 4.05679C13.0655 4.05679 13.3286 4.16512 13.5452 4.38176C13.7619 4.60615 13.8702 4.87115 13.8702 5.17678C13.8702 5.48241 13.7619 5.74354 13.5452 5.96019ZM9.78487 4.05679C9.78487 4.77637 9.53147 5.38956 9.02467 5.89636C8.51787 6.40316 7.90468 6.65656 7.1851 6.65656C6.46553 6.65656 5.85234 6.40316 5.34554 5.89636C4.83874 5.38956 4.58534 4.77637 4.58534 4.05679C4.58534 3.33722 4.83874 2.72403 5.34554 2.21723C5.85234 1.71043 6.46553 1.45703 7.1851 1.45703C7.90468 1.45703 8.51787 1.71043 9.02467 2.21723C9.53147 2.72403 9.78487 3.33722 9.78487 4.05679Z" fill="#F4F4F4"/>
</g>
<defs>
<clipPath id="clip0_1140_3450">
<rect width="14" height="12" fill="white" transform="translate(0.5 0.869141)"/>
</clipPath>
</defs>
</svg>
