<svg width="52" height="52" viewBox="0 0 52 52" fill="none" xmlns="http://www.w3.org/2000/svg">
<path opacity="0.35" d="M37.3623 37.7587H16.7834C13.9418 37.7587 11.6387 35.4556 11.6387 32.614V12.0352H37.3623C40.2039 12.0352 42.507 14.3383 42.507 17.1799V32.614C42.507 35.4556 40.2039 37.7587 37.3623 37.7587Z" fill="#3FFF00"/>
<path d="M36.506 27.4709C37.9266 27.4709 39.0783 26.3192 39.0783 24.8985C39.0783 23.4779 37.9266 22.3262 36.506 22.3262C35.0853 22.3262 33.9336 23.4779 33.9336 24.8985C33.9336 26.3192 35.0853 27.4709 36.506 27.4709Z" fill="#3FFF00"/>
<path d="M11.6387 12.0353C11.6387 9.19374 13.9418 6.89062 16.7834 6.89062H32.2175C35.0591 6.89062 37.3623 9.19374 37.3623 12.0353H11.6387Z" fill="#3FFF00"/>
<path d="M26.385 43.9808H13.6309C11.5176 43.9808 9.80469 42.2679 9.80469 40.1546V22.2989C9.80469 20.1855 11.5176 18.4727 13.6309 18.4727H26.385C28.4983 18.4727 30.2112 20.1855 30.2112 22.2989V40.1546C30.2112 42.2679 28.4983 43.9808 26.385 43.9808Z" fill="#3FFF00"/>
<path d="M25.1115 22.2969H14.9082C14.2042 22.2969 13.6328 22.8683 13.6328 23.5723V24.8477C13.6328 25.5517 14.2042 26.1231 14.9082 26.1231H25.1115C25.8155 26.1231 26.3869 25.5517 26.3869 24.8477V23.5723C26.3869 22.8683 25.8155 22.2969 25.1115 22.2969Z" fill="#35781F"/>
<path d="M20.0078 31.2285C20.7122 31.2285 21.2832 30.6575 21.2832 29.9531C21.2832 29.2488 20.7122 28.6777 20.0078 28.6777C19.3034 28.6777 18.7324 29.2488 18.7324 29.9531C18.7324 30.6575 19.3034 31.2285 20.0078 31.2285Z" fill="#35781F"/>
<path d="M25.1074 31.2285C25.8118 31.2285 26.3828 30.6575 26.3828 29.9531C26.3828 29.2488 25.8118 28.6777 25.1074 28.6777C24.4031 28.6777 23.832 29.2488 23.832 29.9531C23.832 30.6575 24.4031 31.2285 25.1074 31.2285Z" fill="#35781F"/>
<path d="M14.9082 31.2285C15.6126 31.2285 16.1836 30.6575 16.1836 29.9531C16.1836 29.2488 15.6126 28.6777 14.9082 28.6777C14.2038 28.6777 13.6328 29.2488 13.6328 29.9531C13.6328 30.6575 14.2038 31.2285 14.9082 31.2285Z" fill="#35781F"/>
<path d="M20.0078 36.3301C20.7122 36.3301 21.2832 35.7591 21.2832 35.0547C21.2832 34.3503 20.7122 33.7793 20.0078 33.7793C19.3034 33.7793 18.7324 34.3503 18.7324 35.0547C18.7324 35.7591 19.3034 36.3301 20.0078 36.3301Z" fill="#35781F"/>
<path d="M20.0078 41.4297C20.7122 41.4297 21.2832 40.8587 21.2832 40.1543C21.2832 39.4499 20.7122 38.8789 20.0078 38.8789C19.3034 38.8789 18.7324 39.4499 18.7324 40.1543C18.7324 40.8587 19.3034 41.4297 20.0078 41.4297Z" fill="#35781F"/>
<path d="M14.9082 36.3301C15.6126 36.3301 16.1836 35.7591 16.1836 35.0547C16.1836 34.3503 15.6126 33.7793 14.9082 33.7793C14.2038 33.7793 13.6328 34.3503 13.6328 35.0547C13.6328 35.7591 14.2038 36.3301 14.9082 36.3301Z" fill="#35781F"/>
<path d="M14.9082 41.4297C15.6126 41.4297 16.1836 40.8587 16.1836 40.1543C16.1836 39.4499 15.6126 38.8789 14.9082 38.8789C14.2038 38.8789 13.6328 39.4499 13.6328 40.1543C13.6328 40.8587 14.2038 41.4297 14.9082 41.4297Z" fill="#35781F"/>
<path d="M26.3828 40.1563C26.3828 39.9191 26.3828 35.2919 26.3828 35.0547C26.3828 34.3507 25.8115 33.7793 25.1074 33.7793C24.4034 33.7793 23.832 34.3507 23.832 35.0547C23.832 35.2919 23.832 39.9191 23.832 40.1563C23.832 40.8604 24.4034 41.4317 25.1074 41.4317C25.8115 41.4317 26.3828 40.8604 26.3828 40.1563Z" fill="#35781F"/>
</svg>
