<svg width="68" height="21" viewBox="0 0 68 21" fill="none" xmlns="http://www.w3.org/2000/svg">
<g clip-path="url(#clip0_2217_387)">
<path d="M65.2607 0.945312H2.91567C1.53839 0.945312 0.421875 2.06182 0.421875 3.43911V18.4019C0.421875 19.7792 1.53839 20.8957 2.91567 20.8957H65.2607C66.6379 20.8957 67.7545 19.7792 67.7545 18.4019V3.43911C67.7545 2.06182 66.6379 0.945312 65.2607 0.945312Z" fill="black"/>
<path d="M65.2607 1.34422C65.816 1.34486 66.3485 1.56578 66.7412 1.95852C67.1339 2.35125 67.3548 2.88372 67.3554 3.43911V18.4019C67.3548 18.9573 67.1339 19.4898 66.7412 19.8825C66.3485 20.2752 65.816 20.4961 65.2607 20.4968H2.91567C2.36028 20.4962 1.82782 20.2752 1.4351 19.8825C1.04239 19.4898 0.821497 18.9573 0.820883 18.4019V3.43911C0.821487 2.88371 1.04238 2.35124 1.43509 1.9585C1.82781 1.56577 2.36028 1.34485 2.91567 1.34422H65.2607ZM65.2607 0.945312H2.91567C2.25487 0.947247 1.62169 1.21061 1.15443 1.67787C0.687169 2.14513 0.423809 2.77831 0.421875 3.43911L0.421875 18.4019C0.423809 19.0627 0.687169 19.6959 1.15443 20.1632C1.62169 20.6304 2.25487 20.8938 2.91567 20.8957H65.2607C65.9215 20.8938 66.5546 20.6304 67.0219 20.1632C67.4892 19.6959 67.7525 19.0627 67.7545 18.4019V3.43911C67.7525 2.77831 67.4892 2.14513 67.0219 1.67787C66.5546 1.21061 65.9215 0.947247 65.2607 0.945312Z" fill="#A6A6A6"/>
<path d="M24.0727 6.05376C24.0818 6.23678 24.0535 6.41972 23.9896 6.59146C23.9257 6.7632 23.8275 6.92014 23.701 7.05273C23.5593 7.19974 23.3881 7.31517 23.1986 7.39147C23.0092 7.46777 22.8058 7.50321 22.6017 7.49548C22.3963 7.49731 22.1927 7.45808 22.0027 7.38008C21.8127 7.30208 21.6402 7.18688 21.4953 7.04126C21.3505 6.89564 21.2362 6.72254 21.1592 6.53212C21.0822 6.34171 21.0441 6.13783 21.047 5.93246C21.0441 5.72709 21.0823 5.52321 21.1593 5.33279C21.2363 5.14237 21.3505 4.96926 21.4954 4.82363C21.6402 4.67799 21.8127 4.56277 22.0027 4.48473C22.1927 4.4067 22.3963 4.36742 22.6017 4.3692C22.8129 4.36856 23.0219 4.41125 23.2159 4.49464C23.3961 4.56768 23.5565 4.68224 23.684 4.82901L23.421 5.09225C23.3207 4.97427 23.1947 4.8809 23.0527 4.81933C22.9106 4.75777 22.7563 4.72966 22.6017 4.73718C22.4461 4.73638 22.2918 4.767 22.1483 4.8272C22.0048 4.88741 21.8749 4.97596 21.7663 5.08757C21.6578 5.19917 21.573 5.33152 21.5168 5.4767C21.4607 5.62188 21.4344 5.77689 21.4396 5.93246C21.4359 6.16548 21.5015 6.39435 21.628 6.59006C21.7545 6.78576 21.9363 6.93948 22.1504 7.03173C22.3644 7.12398 22.601 7.15059 22.8301 7.1082C23.0593 7.06581 23.2707 6.95632 23.4375 6.79362C23.5911 6.62815 23.6801 6.41302 23.6884 6.18743H22.6017V5.82797H24.0518C24.0655 5.90246 24.0725 5.97802 24.0727 6.05376Z" fill="white" stroke="white" stroke-width="0.099752" stroke-miterlimit="10"/>
<path d="M26.3721 4.80524H25.0093V5.75403H26.2382V6.11353H25.0093V7.06232H26.3721V7.43006H24.625V4.4375H26.3721V4.80524Z" fill="white" stroke="white" stroke-width="0.099752" stroke-miterlimit="10"/>
<path d="M27.9921 7.43006H27.6073V4.80524H26.7715V4.4375H28.8279V4.80524H27.9921V7.43006Z" fill="white" stroke="white" stroke-width="0.099752" stroke-miterlimit="10"/>
<path d="M30.3164 7.43006V4.4375H30.7007V7.43006H30.3164Z" fill="white" stroke="white" stroke-width="0.099752" stroke-miterlimit="10"/>
<path d="M32.4061 7.43006H32.0213V4.80524H31.1855V4.4375H33.2419V4.80524H32.4061V7.43006Z" fill="white" stroke="white" stroke-width="0.099752" stroke-miterlimit="10"/>
<path d="M37.1354 7.04194C36.8442 7.33235 36.4496 7.49542 36.0383 7.49542C35.627 7.49542 35.2325 7.33235 34.9412 7.04194C34.7971 6.89599 34.6838 6.72256 34.6081 6.53195C34.5324 6.34134 34.4957 6.13745 34.5004 5.9324C34.4957 5.72736 34.5324 5.52347 34.6081 5.33286C34.6838 5.14225 34.7971 4.96881 34.9412 4.82286C35.0852 4.67885 35.2561 4.56465 35.4443 4.4868C35.6324 4.40894 35.8341 4.36896 36.0378 4.36914C36.2414 4.36932 36.443 4.40966 36.631 4.48785C36.819 4.56604 36.9898 4.68054 37.1335 4.82481C37.2777 4.97037 37.3912 5.14342 37.4672 5.33368C37.5433 5.52395 37.5804 5.72755 37.5762 5.9324C37.5808 6.13743 37.5441 6.34129 37.4684 6.53188C37.3926 6.72247 37.2794 6.89592 37.1354 7.04194ZM35.2251 6.79137C35.4409 7.00673 35.7332 7.12769 36.0381 7.12769C36.3429 7.12769 36.6353 7.00673 36.851 6.79137C36.9616 6.67811 37.0481 6.5436 37.1053 6.39596C37.1625 6.24833 37.1892 6.09063 37.1837 5.9324C37.1892 5.77418 37.1625 5.61648 37.1053 5.46885C37.0481 5.32121 36.9616 5.1867 36.851 5.07344C36.6353 4.85808 36.3429 4.73712 36.0381 4.73712C35.7332 4.73712 35.4409 4.85808 35.2251 5.07344C35.1147 5.18679 35.0283 5.32133 34.9712 5.46895C34.9141 5.61657 34.8875 5.77422 34.893 5.9324C34.8875 6.09059 34.9141 6.24824 34.9712 6.39586C35.0283 6.54348 35.1147 6.67802 35.2251 6.79137Z" fill="white" stroke="white" stroke-width="0.099752" stroke-miterlimit="10"/>
<path d="M38.1152 7.43006V4.4375H38.5833L40.0377 6.76546H40.0543L40.0377 6.18875V4.4375H40.4225V7.43006H40.0211L38.4995 4.98933H38.483L38.4995 5.56604V7.43006H38.1152Z" fill="white" stroke="white" stroke-width="0.099752" stroke-miterlimit="10"/>
<path d="M34.4042 11.794C33.985 11.7956 33.5757 11.9213 33.2279 12.1554C32.8801 12.3894 32.6094 12.7213 32.4501 13.1091C32.2908 13.4968 32.2499 13.9231 32.3327 14.3341C32.4154 14.745 32.6181 15.1222 32.9151 15.4181C33.2121 15.714 33.5901 15.9152 34.0014 15.9964C34.4126 16.0776 34.8388 16.0351 35.2259 15.8743C35.6131 15.7135 35.9439 15.4416 36.1766 15.093C36.4094 14.7443 36.5336 14.3345 36.5336 13.9152C36.5377 13.6349 36.4854 13.3565 36.3797 13.0967C36.274 12.837 36.1172 12.6011 35.9186 12.4032C35.7199 12.2053 35.4834 12.0494 35.2233 11.9447C34.9631 11.84 34.6846 11.7888 34.4042 11.794ZM34.4042 15.2009C34.146 15.2193 33.8883 15.1596 33.6646 15.0294C33.4408 14.8993 33.2614 14.7048 33.1498 14.4714C33.0381 14.2379 32.9993 13.9761 33.0385 13.7203C33.0776 13.4645 33.1929 13.2263 33.3693 13.0369C33.5457 12.8475 33.775 12.7156 34.0274 12.6583C34.2798 12.6011 34.5436 12.6211 34.7845 12.7159C35.0253 12.8107 35.2321 12.9758 35.3778 13.1897C35.5235 13.4036 35.6014 13.6564 35.6014 13.9152C35.6093 14.0788 35.5843 14.2422 35.528 14.3959C35.4717 14.5496 35.3853 14.6905 35.2737 14.8103C35.1622 14.9301 35.0278 15.0264 34.8784 15.0935C34.7291 15.1606 34.5679 15.1971 34.4042 15.2009ZM29.7591 11.794C29.3398 11.7955 28.9305 11.9213 28.5827 12.1554C28.2349 12.3894 27.9643 12.7213 27.8049 13.109C27.6456 13.4968 27.6047 13.9231 27.6875 14.334C27.7702 14.745 27.9729 15.1222 28.2699 15.4181C28.5669 15.714 28.9449 15.9152 29.3562 15.9964C29.7674 16.0776 30.1935 16.0351 30.5807 15.8743C30.9679 15.7135 31.2987 15.4416 31.5314 15.093C31.7642 14.7443 31.8884 14.3345 31.8884 13.9152C31.8925 13.6349 31.8402 13.3565 31.7345 13.0967C31.6289 12.837 31.472 12.6011 31.2734 12.4032C31.0747 12.2053 30.8383 12.0494 30.5781 11.9447C30.318 11.8401 30.0394 11.7888 29.7591 11.794ZM29.7591 15.2009C29.5009 15.2193 29.2432 15.1596 29.0194 15.0294C28.7957 14.8993 28.6163 14.7048 28.5046 14.4714C28.393 14.2379 28.3542 13.9761 28.3933 13.7203C28.4325 13.4645 28.5478 13.2263 28.7241 13.0369C28.9005 12.8475 29.1299 12.7156 29.3823 12.6583C29.6347 12.6011 29.8985 12.6211 30.1393 12.7159C30.3802 12.8107 30.5869 12.9758 30.7326 13.1897C30.8783 13.4036 30.9563 13.6564 30.9563 13.9152C30.9641 14.0788 30.9392 14.2422 30.8829 14.3959C30.8266 14.5496 30.7401 14.6905 30.6286 14.8103C30.517 14.9302 30.3826 15.0264 30.2333 15.0935C30.084 15.1606 29.9227 15.1971 29.7591 15.2009ZM24.2334 12.4448V13.3448H26.3869C26.3558 13.7669 26.1831 14.1661 25.8967 14.4777C25.6809 14.6977 25.4214 14.87 25.1349 14.9835C24.8484 15.097 24.5413 15.1491 24.2334 15.1366C23.604 15.1281 23.0032 14.8721 22.5611 14.4239C22.119 13.9758 21.8711 13.3716 21.8711 12.7421C21.8711 12.1126 22.119 11.5084 22.5611 11.0603C23.0032 10.6122 23.604 10.3561 24.2334 10.3476C24.838 10.3397 25.4213 10.5707 25.8566 10.9904L26.4913 10.3556C26.1943 10.0616 25.8417 9.82987 25.4539 9.67395C25.0662 9.51803 24.6512 9.4411 24.2334 9.44765C23.7967 9.44129 23.3631 9.52181 22.9579 9.68452C22.5526 9.84723 22.1837 10.0889 21.8727 10.3954C21.5616 10.702 21.3146 11.0673 21.146 11.4702C20.9774 11.873 20.8906 12.3054 20.8906 12.7421C20.8906 13.1788 20.9774 13.6112 21.146 14.014C21.3146 14.4169 21.5616 14.7822 21.8727 15.0888C22.1837 15.3953 22.5526 15.637 22.9579 15.7997C23.3631 15.9624 23.7967 16.0429 24.2334 16.0366C24.6601 16.0543 25.0856 15.981 25.4818 15.8217C25.878 15.6624 26.2358 15.4207 26.5315 15.1125C27.0564 14.5396 27.3362 13.7839 27.3109 13.0073C27.313 12.8187 27.2968 12.6303 27.2627 12.4448H24.2334ZM46.8314 13.1439C46.7039 12.7596 46.4612 12.424 46.1363 12.1825C45.8114 11.9409 45.42 11.8053 45.0154 11.794C44.7428 11.7957 44.4734 11.8526 44.2235 11.9614C43.9736 12.0701 43.7483 12.2284 43.5613 12.4267C43.3743 12.625 43.2294 12.8591 43.1355 13.115C43.0415 13.3708 43.0004 13.6431 43.0146 13.9152C43.0085 14.1941 43.0586 14.4714 43.1621 14.7305C43.2655 14.9896 43.4201 15.2252 43.6166 15.4232C43.8131 15.6212 44.0475 15.7776 44.3057 15.8829C44.564 15.9883 44.8409 16.0406 45.1199 16.0366C45.4693 16.0385 45.8138 15.9536 46.1223 15.7895C46.4309 15.6254 46.6938 15.3873 46.8876 15.0965L46.1644 14.6144C46.0561 14.7943 45.9028 14.9429 45.7197 15.0458C45.5366 15.1486 45.3299 15.2021 45.1199 15.2009C44.9037 15.2092 44.6901 15.1523 44.5067 15.0377C44.3233 14.9231 44.1786 14.756 44.0913 14.5581L46.9278 13.385L46.8314 13.1439ZM43.9387 13.851C43.9287 13.6966 43.9496 13.5418 44.0002 13.3956C44.0508 13.2493 44.13 13.1147 44.2332 12.9994C44.3365 12.8842 44.4617 12.7907 44.6015 12.7245C44.7413 12.6582 44.8929 12.6205 45.0475 12.6136C45.2084 12.603 45.3689 12.64 45.509 12.72C45.649 12.8001 45.7624 12.9195 45.835 13.0636L43.9387 13.851ZM41.6325 15.908H42.5646V9.67269H41.6325V15.908ZM40.1058 12.268H40.0737C39.932 12.1141 39.7591 11.9921 39.5664 11.9104C39.3738 11.8286 39.166 11.7889 38.9568 11.794C38.4098 11.8172 37.8929 12.0509 37.5141 12.4462C37.1353 12.8415 36.9238 13.3678 36.9238 13.9153C36.9238 14.4628 37.1353 14.9891 37.5141 15.3843C37.8929 15.7796 38.4098 16.0133 38.9568 16.0366C39.1668 16.0422 39.3755 16.0019 39.5684 15.9187C39.7613 15.8354 39.9337 15.7111 40.0737 15.5545H40.1058V15.8598C40.1058 16.6714 39.672 17.1053 38.9728 17.1053C38.7399 17.0997 38.5138 17.0249 38.3235 16.8904C38.1332 16.7558 37.9872 16.5677 37.9042 16.3499L37.0926 16.6875C37.2456 17.0599 37.5063 17.3781 37.8412 17.6014C38.1762 17.8248 38.5703 17.943 38.9728 17.9409C40.0657 17.9409 40.9897 17.2981 40.9897 15.7312V11.9225H40.1058V12.268ZM39.0372 15.2009C38.715 15.1736 38.4149 15.0263 38.1961 14.7882C37.9773 14.5501 37.856 14.2386 37.856 13.9153C37.856 13.5919 37.9773 13.2804 38.1961 13.0423C38.4149 12.8042 38.715 12.657 39.0372 12.6296C39.1975 12.6375 39.3545 12.6775 39.499 12.7473C39.6435 12.8171 39.7724 12.9153 39.8782 13.036C39.9839 13.1568 40.0642 13.2975 40.1144 13.45C40.1645 13.6024 40.1835 13.7634 40.1701 13.9233C40.1826 14.0822 40.163 14.242 40.1123 14.3932C40.0617 14.5443 39.9811 14.6837 39.8753 14.803C39.7695 14.9222 39.6408 15.019 39.4968 15.0873C39.3528 15.1557 39.1965 15.1943 39.0372 15.2009ZM51.1975 9.67279H48.9674V15.908H49.8979V13.5457H51.1975C51.4607 13.5601 51.7241 13.5207 51.9716 13.4299C52.219 13.3391 52.4454 13.1988 52.6369 13.0176C52.8283 12.8364 52.9808 12.618 53.085 12.3758C53.1892 12.1337 53.243 11.8728 53.243 11.6092C53.243 11.3456 53.1892 11.0848 53.085 10.8426C52.9808 10.6005 52.8283 10.3821 52.6369 10.2009C52.4454 10.0196 52.219 9.87934 51.9716 9.78854C51.7241 9.69775 51.4607 9.65836 51.1975 9.67279ZM51.2215 12.6779H49.8979V10.5406H51.2215C51.3637 10.5376 51.5051 10.5631 51.6373 10.6155C51.7695 10.6679 51.89 10.7461 51.9916 10.8456C52.0932 10.9452 52.1739 11.064 52.229 11.1951C52.2841 11.3262 52.3125 11.467 52.3125 11.6093C52.3125 11.7515 52.2841 11.8923 52.229 12.0234C52.1739 12.1545 52.0932 12.2733 51.9916 12.3729C51.89 12.4724 51.7695 12.5506 51.6373 12.603C51.5051 12.6554 51.3637 12.6809 51.2215 12.6779ZM56.973 11.7825C56.6334 11.7627 56.2953 11.8424 56.0003 12.012C55.7054 12.1816 55.4663 12.4336 55.3125 12.7371L56.1388 13.082C56.2207 12.9314 56.3447 12.8079 56.4958 12.7267C56.6468 12.6455 56.8182 12.61 56.989 12.6248C57.2251 12.6017 57.4607 12.6732 57.6442 12.8236C57.8276 12.9739 57.944 13.1909 57.9677 13.4269V13.4911C57.6689 13.3323 57.3355 13.2497 56.9971 13.2504C56.1067 13.2504 55.2002 13.7398 55.2002 14.6543C55.2089 14.847 55.2562 15.036 55.3393 15.2101C55.4224 15.3842 55.5396 15.5399 55.684 15.6678C55.8284 15.7957 55.997 15.8934 56.1798 15.9549C56.3627 16.0164 56.556 16.0406 56.7484 16.0259C56.9827 16.0397 57.2165 15.9905 57.4253 15.8832C57.6341 15.776 57.8103 15.6148 57.9356 15.4163H57.9677V15.8976H58.8661V13.5072C58.8661 12.4002 58.0399 11.7825 56.973 11.7825ZM56.8607 15.1997C56.5559 15.1997 56.1307 15.0473 56.1307 14.6703C56.1307 14.189 56.6602 14.0045 57.1174 14.0045C57.4144 13.9966 57.7081 14.0686 57.9677 14.2131C57.9335 14.4835 57.8026 14.7324 57.5991 14.9138C57.3956 15.0952 57.1333 15.1967 56.8607 15.1997ZM62.139 11.9189L61.0721 14.6221H61.04L59.933 11.9189H58.9303L60.5908 15.6971L59.6442 17.7987H60.6148L63.1738 11.9189H62.139ZM53.7563 15.908H54.6868V9.67279H53.7563V15.908Z" fill="white"/>
<path d="M5.62717 4.70418C5.46362 4.89973 5.38104 5.15042 5.39634 5.40489V16.4355C5.38099 16.69 5.46358 16.9407 5.62717 17.1362L5.66408 17.1722L11.8432 10.9931V10.8473L5.66408 4.66797L5.62717 4.70418Z" fill="url(#paint0_linear_2217_387)"/>
<path d="M13.9014 13.0555L11.8418 10.9949V10.8491L13.9019 8.78906L13.9483 8.81555L16.3886 10.2021C17.0857 10.5982 17.0857 11.2462 16.3886 11.6424L13.9483 13.029L13.9014 13.0555Z" fill="url(#paint1_linear_2217_387)"/>
<path d="M13.9495 13.0286L11.843 10.9219L5.62695 17.1379C5.76898 17.2631 5.95036 17.3348 6.13966 17.3404C6.32896 17.346 6.51425 17.2852 6.66343 17.1685L13.9495 13.0286Z" fill="url(#paint2_linear_2217_387)"/>
<path d="M13.9495 8.81409L6.66343 4.67418C6.51425 4.55752 6.32896 4.49671 6.13966 4.50231C5.95036 4.5079 5.76898 4.57954 5.62695 4.7048L11.843 10.9208L13.9495 8.81409Z" fill="url(#paint3_linear_2217_387)"/>
<path opacity="0.2" d="M13.9031 12.9824L6.66343 17.0958C6.51999 17.205 6.34493 17.2646 6.16466 17.2656C5.98439 17.2665 5.8087 17.2088 5.66411 17.1012L5.62695 17.1383L5.66386 17.1743L5.66411 17.174C5.80868 17.2818 5.98438 17.3395 6.16466 17.3385C6.34494 17.3376 6.52002 17.278 6.66343 17.1687L13.9495 13.0288L13.9031 12.9824Z" fill="black"/>
<path opacity="0.12" d="M5.62716 17.064C5.46362 16.8684 5.38104 16.6177 5.39633 16.3633V16.4362C5.38104 16.6906 5.46362 16.9413 5.62716 17.1369L5.66432 17.0997L5.62716 17.064Z" fill="black"/>
<path opacity="0.12" d="M16.3891 11.5689L13.9023 12.982L13.9488 13.0284L16.3891 11.6418C16.5327 11.5795 16.6569 11.4798 16.7488 11.3532C16.8408 11.2266 16.8971 11.0777 16.912 10.9219C16.8811 11.0629 16.8178 11.1949 16.727 11.3072C16.6363 11.4195 16.5206 11.5091 16.3891 11.5689Z" fill="black"/>
<path opacity="0.25" d="M6.66378 4.74662L16.3902 10.2729C16.5217 10.3327 16.6374 10.4223 16.7282 10.5347C16.819 10.647 16.8823 10.779 16.913 10.9202C16.8983 10.7643 16.842 10.6153 16.7501 10.4886C16.6581 10.3619 16.5338 10.2623 16.3902 10.2L6.66378 4.67375C5.96672 4.27769 5.39648 4.60667 5.39648 5.40508V5.47795C5.39648 4.67959 5.96672 4.3506 6.66378 4.74662Z" fill="white"/>
</g>
<defs>
<linearGradient id="paint0_linear_2217_387" x1="11.2952" y1="5.28858" x2="2.92485" y2="13.659" gradientUnits="userSpaceOnUse">
<stop stop-color="#00A0FF"/>
<stop offset="0.00657" stop-color="#00A1FF"/>
<stop offset="0.2601" stop-color="#00BEFF"/>
<stop offset="0.5122" stop-color="#00D2FF"/>
<stop offset="0.7604" stop-color="#00DFFF"/>
<stop offset="1" stop-color="#00E3FF"/>
</linearGradient>
<linearGradient id="paint1_linear_2217_387" x1="17.2962" y1="10.9223" x2="5.22778" y2="10.9223" gradientUnits="userSpaceOnUse">
<stop stop-color="#FFE000"/>
<stop offset="0.4087" stop-color="#FFBD00"/>
<stop offset="0.7754" stop-color="#FFA500"/>
<stop offset="1" stop-color="#FF9C00"/>
</linearGradient>
<linearGradient id="paint2_linear_2217_387" x1="12.8049" y1="12.0666" x2="1.45397" y2="23.4175" gradientUnits="userSpaceOnUse">
<stop stop-color="#FF3A44"/>
<stop offset="1" stop-color="#C31162"/>
</linearGradient>
<linearGradient id="paint3_linear_2217_387" x1="4.06181" y1="1.03302" x2="9.13047" y2="6.10168" gradientUnits="userSpaceOnUse">
<stop stop-color="#32A071"/>
<stop offset="0.0685" stop-color="#2DA771"/>
<stop offset="0.4762" stop-color="#15CF74"/>
<stop offset="0.8009" stop-color="#06E775"/>
<stop offset="1" stop-color="#00F076"/>
</linearGradient>
<clipPath id="clip0_2217_387">
<rect width="67.3326" height="19.9505" fill="white" transform="translate(0.421875 0.945312)"/>
</clipPath>
</defs>
</svg>
