<svg width="10" height="14" viewBox="0 0 10 14" fill="none" xmlns="http://www.w3.org/2000/svg">
<path d="M8.61645 3.0918H1.57883C1.37144 3.0918 1.17255 3.17418 1.02591 3.32083C0.87926 3.46747 0.796875 3.66637 0.796875 3.87375C0.796875 4.08114 0.87926 4.28004 1.02591 4.42668C1.17255 4.57333 1.37144 4.65571 1.57883 4.65571V8.5655C1.57883 8.87658 1.70241 9.17492 1.92238 9.39489C2.14235 9.61486 2.44069 9.73844 2.75177 9.73844H4.28441L3.23947 11.0693C3.17846 11.1505 3.15145 11.2522 3.16417 11.353C3.17688 11.4538 3.22832 11.5457 3.30759 11.6092C3.38686 11.6727 3.48774 11.7029 3.58887 11.6933C3.69 11.6838 3.78344 11.6352 3.8494 11.558L5.09764 9.98475L6.3673 11.558C6.43327 11.6352 6.5267 11.6838 6.62783 11.6933C6.72896 11.7029 6.82984 11.6727 6.90911 11.6092C6.98838 11.5457 7.03982 11.4538 7.05254 11.353C7.06525 11.2522 7.03824 11.1505 6.97723 11.0693L5.91088 9.73844H7.44351C7.7546 9.73844 8.05294 9.61486 8.27291 9.39489C8.49287 9.17492 8.61645 8.87658 8.61645 8.5655V4.65571C8.82384 4.65571 9.02273 4.57333 9.16938 4.42668C9.31602 4.28004 9.39841 4.08114 9.39841 3.87375C9.39841 3.66637 9.31602 3.46747 9.16938 3.32083C9.02273 3.17418 8.82384 3.0918 8.61645 3.0918ZM7.83449 8.5655C7.83449 8.66919 7.7933 8.76864 7.71998 8.84196C7.64666 8.91529 7.54721 8.95648 7.44351 8.95648H2.75177C2.64807 8.95648 2.54863 8.91529 2.47531 8.84196C2.40198 8.76864 2.36079 8.66919 2.36079 8.5655V4.65571H7.83449V8.5655Z" fill="#8A898E"/>
</svg>
