<svg width="61" height="15" viewBox="0 0 61 15" fill="none" xmlns="http://www.w3.org/2000/svg">
<rect width="60.2182" height="13.0046" transform="translate(0.304688 0.818359)" fill="#090909"/>
<path fill-rule="evenodd" clip-rule="evenodd" d="M5.14683 0.818359C2.47259 0.818359 0.304688 2.98626 0.304688 5.66051V13.823H3.83255V6.90838C3.83255 5.53306 4.94747 4.41814 6.32279 4.41814H13.2401V0.818359H5.14683Z" fill="#3FFF00"/>
<path d="M6.1875 7.94434C6.1875 7.25668 6.74496 6.69922 7.43262 6.69922H9.92287V10.4346H6.1875V7.94434Z" fill="#3FFF00"/>
<path d="M16.5084 11.8203V4.22986H21.6656V5.53262H18.188V7.38447H21.418V8.67647H18.188V11.8203H16.5084ZM22.6252 11.8203V3.8961H24.2509V11.8203H22.6252ZM27.7007 11.9387C27.227 11.9387 26.8107 11.8239 26.4518 11.5942C26.0929 11.3645 25.813 11.0379 25.612 10.6145C25.411 10.191 25.3105 9.68135 25.3105 9.0856C25.3105 8.49702 25.411 7.99099 25.612 7.56751C25.813 7.14402 26.0929 6.82102 26.4518 6.59851C26.8107 6.36883 27.227 6.25398 27.7007 6.25398C28.1386 6.25398 28.5297 6.36165 28.8743 6.57698C29.226 6.78513 29.4557 7.06865 29.5633 7.42754H29.4449L29.5741 6.36165H31.1353C31.1137 6.59851 31.0922 6.83897 31.0707 7.08301C31.0563 7.31987 31.0491 7.55315 31.0491 7.78284V11.8203H29.4341L29.4234 10.7975H29.5526C29.4377 11.142 29.208 11.4184 28.8635 11.6265C28.519 11.8347 28.1314 11.9387 27.7007 11.9387ZM28.196 10.7114C28.5692 10.7114 28.8707 10.5786 29.1004 10.313C29.3301 10.0474 29.4449 9.63828 29.4449 9.0856C29.4449 8.53291 29.3301 8.12737 29.1004 7.86897C28.8707 7.61057 28.5692 7.48137 28.196 7.48137C27.8227 7.48137 27.5213 7.61057 27.2916 7.86897C27.0619 8.12737 26.947 8.53291 26.947 9.0856C26.947 9.63828 27.0583 10.0474 27.2808 10.313C27.5105 10.5786 27.8156 10.7114 28.196 10.7114ZM34.9772 14.232C34.4532 14.232 33.9866 14.1782 33.5775 14.0705C33.1684 13.97 32.8023 13.8157 32.4793 13.6076L32.7915 12.4448C32.9925 12.574 33.2043 12.6781 33.4268 12.757C33.6565 12.8431 33.8897 12.9041 34.1266 12.94C34.3706 12.9831 34.6111 13.0046 34.848 13.0046C35.3289 13.0046 35.6878 12.8898 35.9246 12.6601C36.1615 12.4304 36.2799 12.1038 36.2799 11.6803V10.5499H36.3876C36.2727 10.8944 36.0431 11.1707 35.6985 11.3789C35.354 11.587 34.9664 11.6911 34.5357 11.6911C34.0476 11.6911 33.6206 11.5799 33.2545 11.3573C32.8956 11.1348 32.6157 10.819 32.4147 10.4099C32.2137 10.0008 32.1132 9.51985 32.1132 8.96716C32.1132 8.41448 32.2137 7.93357 32.4147 7.52444C32.6157 7.11531 32.8956 6.80308 33.2545 6.58775C33.6206 6.36524 34.0476 6.25398 34.5357 6.25398C34.9736 6.25398 35.3576 6.35806 35.6878 6.56621C36.0251 6.76719 36.2512 7.03635 36.3661 7.37371L36.2799 7.33064L36.3876 6.36165H37.9595C37.9308 6.59851 37.9093 6.83897 37.8949 7.08301C37.8806 7.31987 37.8734 7.55315 37.8734 7.78284V11.4973C37.8734 12.3802 37.6257 13.0549 37.1305 13.5214C36.6352 13.9952 35.9174 14.232 34.9772 14.232ZM35.0202 10.4637C35.4007 10.4637 35.7021 10.3345 35.9246 10.0761C36.1471 9.81773 36.2584 9.44807 36.2584 8.96716C36.2584 8.48626 36.1471 8.12019 35.9246 7.86897C35.7021 7.61057 35.4007 7.48137 35.0202 7.48137C34.6255 7.48137 34.3132 7.61057 34.0835 7.86897C33.861 8.12019 33.7498 8.48626 33.7498 8.96716C33.7498 9.44807 33.861 9.81773 34.0835 10.0761C34.3132 10.3345 34.6255 10.4637 35.0202 10.4637ZM41.209 11.9387C40.7209 11.9387 40.2759 11.8849 39.8739 11.7772C39.472 11.6696 39.1311 11.5188 38.8511 11.325L39.271 10.2484C39.5509 10.4207 39.8596 10.557 40.1969 10.6575C40.5415 10.758 40.8824 10.8083 41.2198 10.8083C41.5356 10.8083 41.7689 10.758 41.9196 10.6575C42.0703 10.557 42.1457 10.4207 42.1457 10.2484C42.1457 10.1048 42.0955 9.99358 41.995 9.91462C41.9017 9.83567 41.7545 9.77825 41.5535 9.74236L40.4446 9.53779C39.978 9.44448 39.6227 9.27222 39.3787 9.021C39.1346 8.76978 39.0126 8.44319 39.0126 8.04124C39.0126 7.68953 39.1059 7.38089 39.2926 7.11531C39.4863 6.84256 39.7627 6.63081 40.1216 6.48008C40.4805 6.32935 40.9004 6.25398 41.3813 6.25398C41.7904 6.25398 42.178 6.30423 42.5441 6.40471C42.9101 6.5052 43.2224 6.65952 43.4808 6.86768L43.0393 7.91204C42.8168 7.74695 42.5584 7.61416 42.2641 7.51367C41.977 7.41319 41.7007 7.36294 41.4351 7.36294C41.0906 7.36294 40.8429 7.42036 40.6922 7.53521C40.5415 7.64287 40.4661 7.78284 40.4661 7.9551C40.4661 8.0843 40.5092 8.19197 40.5953 8.2781C40.6886 8.36423 40.8286 8.42883 41.0152 8.4719L42.1349 8.67647C42.6158 8.7626 42.9819 8.9241 43.2331 9.16096C43.4843 9.39783 43.61 9.72441 43.61 10.1407C43.61 10.5211 43.5095 10.8441 43.3085 11.1097C43.1075 11.3753 42.824 11.5799 42.4579 11.7234C42.099 11.867 41.6827 11.9387 41.209 11.9387ZM44.621 11.8203V3.8961H46.2468V7.38447H46.0853C46.2575 7.01841 46.5123 6.73848 46.8497 6.54468C47.187 6.35088 47.5746 6.25398 48.0125 6.25398C48.6513 6.25398 49.1286 6.4406 49.4444 6.81384C49.7603 7.17991 49.9182 7.74336 49.9182 8.5042V11.8203H48.2924V8.57957C48.2924 8.19915 48.2206 7.92639 48.0771 7.76131C47.9407 7.59622 47.7254 7.51367 47.4311 7.51367C47.0722 7.51367 46.7851 7.62493 46.5698 7.84744C46.3544 8.06995 46.2468 8.36782 46.2468 8.74107V11.8203H44.621ZM51.224 11.8203V6.36165H52.8497V11.8203H51.224ZM51.1594 5.46802V3.94993H52.9035V5.46802H51.1594ZM54.1785 14.1459V7.78284C54.1785 7.55315 54.1713 7.31987 54.1569 7.08301C54.1426 6.83897 54.121 6.59851 54.0923 6.36165H55.6535L55.7827 7.42754H55.6643C55.7719 7.06865 55.998 6.78513 56.3425 6.57698C56.6871 6.36165 57.0819 6.25398 57.5269 6.25398C58.0006 6.25398 58.4169 6.36883 58.7758 6.59851C59.1347 6.82102 59.4146 7.14402 59.6156 7.56751C59.8237 7.99099 59.9278 8.49702 59.9278 9.0856C59.9278 9.68135 59.8237 10.191 59.6156 10.6145C59.4146 11.0379 59.1347 11.3645 58.7758 11.5942C58.4169 11.8239 58.0006 11.9387 57.5269 11.9387C57.089 11.9387 56.6978 11.8347 56.3533 11.6265C56.016 11.4184 55.7899 11.142 55.675 10.7975H55.8042V14.1459H54.1785ZM57.0316 10.7114C57.412 10.7114 57.7171 10.5786 57.9468 10.313C58.1765 10.0474 58.2913 9.63828 58.2913 9.0856C58.2913 8.53291 58.1765 8.12737 57.9468 7.86897C57.7171 7.61057 57.412 7.48137 57.0316 7.48137C56.6584 7.48137 56.3533 7.61057 56.1164 7.86897C55.8868 8.12737 55.7719 8.53291 55.7719 9.0856C55.7719 9.63828 55.8868 10.0474 56.1164 10.313C56.3533 10.5786 56.6584 10.7114 57.0316 10.7114Z" fill="white"/>
</svg>
