<svg width="112" height="25" viewBox="0 0 112 25" fill="none" xmlns="http://www.w3.org/2000/svg">
<rect width="111.2" height="24.0981" transform="translate(0.03125 0.125)" fill="#101010"/>
<path fill-rule="evenodd" clip-rule="evenodd" d="M9.00394 0.125C4.04846 0.125 0.03125 4.14221 0.03125 9.09769V24.2231H6.56852V11.4041C6.56852 8.85556 8.63452 6.78957 11.183 6.78957H24.0011V0.125H9.00394Z" fill="#3FFF00"/>
<path d="M10.9258 13.3268C10.9258 12.0525 11.9588 11.0195 13.233 11.0195H17.8476V17.9413H10.9258V13.3268Z" fill="#3FFF00"/>
<path d="M29.8622 20.1738V6.10841H39.4187V8.52247H32.9746V11.954H38.9599V14.3482H32.9746V20.1738H29.8622ZM41.1969 20.1738V5.48993H44.2095V20.1738H41.1969ZM50.602 20.3933C49.7242 20.3933 48.9528 20.1805 48.2877 19.7549C47.6227 19.3292 47.104 18.7241 46.7315 17.9393C46.3591 17.1546 46.1729 16.2102 46.1729 15.1063C46.1729 14.0156 46.3591 13.0779 46.7315 12.2932C47.104 11.5085 47.6227 10.9099 48.2877 10.4976C48.9528 10.072 49.7242 9.85919 50.602 9.85919C51.4134 9.85919 52.1383 10.0587 52.7767 10.4577C53.4284 10.8434 53.854 11.3688 54.0535 12.0338H53.8341L54.0735 10.0587H56.9664C56.9265 10.4976 56.8866 10.9432 56.8467 11.3954C56.8201 11.8343 56.8068 12.2666 56.8068 12.6922V20.1738H53.8141L53.7942 18.2785H54.0336C53.8208 18.9169 53.3952 19.429 52.7567 19.8147C52.1183 20.2004 51.4001 20.3933 50.602 20.3933ZM51.5198 18.1189C52.2114 18.1189 52.77 17.8728 53.1957 17.3807C53.6213 16.8886 53.8341 16.1304 53.8341 15.1063C53.8341 14.0821 53.6213 13.3307 53.1957 12.8518C52.77 12.373 52.2114 12.1336 51.5198 12.1336C50.8281 12.1336 50.2695 12.373 49.8439 12.8518C49.4183 13.3307 49.2055 14.0821 49.2055 15.1063C49.2055 16.1304 49.4116 16.8886 49.8239 17.3807C50.2496 17.8728 50.8148 18.1189 51.5198 18.1189ZM64.0856 24.6428C63.1147 24.6428 62.2501 24.5431 61.492 24.3436C60.7338 24.1574 60.0555 23.8714 59.457 23.4857L60.0356 21.331C60.408 21.5704 60.8003 21.7633 61.2127 21.9096C61.6383 22.0692 62.0706 22.1822 62.5095 22.2487C62.9617 22.3285 63.4073 22.3684 63.8462 22.3684C64.7373 22.3684 65.4024 22.1556 65.8413 21.73C66.2802 21.3044 66.4997 20.6992 66.4997 19.9145V17.8196H66.6992C66.4864 18.458 66.0607 18.9701 65.4223 19.3558C64.7839 19.7416 64.0656 19.9344 63.2676 19.9344C62.3632 19.9344 61.5718 19.7283 60.8934 19.3159C60.2284 18.9036 59.7097 18.3184 59.3373 17.5603C58.9649 16.8021 58.7786 15.911 58.7786 14.8868C58.7786 13.8627 58.9649 12.9715 59.3373 12.2134C59.7097 11.4553 60.2284 10.8767 60.8934 10.4777C61.5718 10.0653 62.3632 9.85919 63.2676 9.85919C64.0789 9.85919 64.7905 10.052 65.4024 10.4378C66.0275 10.8102 66.4465 11.309 66.6593 11.9341L66.4997 11.8543L66.6992 10.0587H69.612C69.5588 10.4976 69.5189 10.9432 69.4923 11.3954C69.4657 11.8343 69.4524 12.2666 69.4524 12.6922V19.5753C69.4524 21.2113 68.9935 22.4615 68.0758 23.3261C67.158 24.2039 65.828 24.6428 64.0856 24.6428ZM64.1654 17.66C64.8703 17.66 65.429 17.4206 65.8413 16.9418C66.2536 16.463 66.4598 15.778 66.4598 14.8868C66.4598 13.9957 66.2536 13.3174 65.8413 12.8518C65.429 12.373 64.8703 12.1336 64.1654 12.1336C63.4339 12.1336 62.8553 12.373 62.4297 12.8518C62.0173 13.3174 61.8112 13.9957 61.8112 14.8868C61.8112 15.778 62.0173 16.463 62.4297 16.9418C62.8553 17.4206 63.4339 17.66 64.1654 17.66ZM75.6335 20.3933C74.729 20.3933 73.9044 20.2935 73.1595 20.094C72.4147 19.8945 71.7829 19.6152 71.2642 19.2561L72.0423 17.261C72.561 17.5802 73.1329 17.8329 73.7581 18.0191C74.3965 18.2053 75.0283 18.2984 75.6534 18.2984C76.2386 18.2984 76.6709 18.2053 76.9502 18.0191C77.2295 17.8329 77.3692 17.5802 77.3692 17.261C77.3692 16.995 77.2761 16.7888 77.0899 16.6425C76.917 16.4962 76.6443 16.3898 76.2719 16.3233L74.2169 15.9442C73.3524 15.7713 72.694 15.4521 72.2418 14.9866C71.7896 14.5211 71.5635 13.9159 71.5635 13.171C71.5635 12.5193 71.7364 11.9474 72.0822 11.4553C72.4413 10.9498 72.9534 10.5575 73.6184 10.2782C74.2834 9.99884 75.0615 9.85919 75.9527 9.85919C76.7108 9.85919 77.429 9.95229 78.1074 10.1385C78.7857 10.3247 79.3643 10.6107 79.8431 10.9964L79.0251 12.9316C78.6128 12.6257 78.134 12.3797 77.5886 12.1934C77.0566 12.0072 76.5445 11.9141 76.0524 11.9141C75.414 11.9141 74.9551 12.0205 74.6758 12.2334C74.3965 12.4329 74.2568 12.6922 74.2568 13.0114C74.2568 13.2508 74.3366 13.4504 74.4963 13.61C74.6692 13.7696 74.9285 13.8893 75.2743 13.9691L77.3492 14.3482C78.2404 14.5078 78.9187 14.807 79.3842 15.2459C79.8498 15.6849 80.0825 16.29 80.0825 17.0615C80.0825 17.7664 79.8963 18.3649 79.5239 18.8571C79.1515 19.3492 78.6261 19.7283 77.9478 19.9943C77.2827 20.2603 76.5113 20.3933 75.6335 20.3933ZM81.956 20.1738V5.48993H84.9686V11.954H84.6694C84.9886 11.2757 85.4608 10.757 86.0859 10.3979C86.711 10.0387 87.4292 9.85919 88.2406 9.85919C89.4243 9.85919 90.3088 10.205 90.8941 10.8966C91.4793 11.575 91.7719 12.6191 91.7719 14.0289V20.1738H88.7593V14.1686C88.7593 13.4637 88.6263 12.9582 88.3603 12.6523C88.1076 12.3464 87.7086 12.1934 87.1632 12.1934C86.4982 12.1934 85.9662 12.3996 85.5672 12.8119C85.1681 13.2242 84.9686 13.7762 84.9686 14.4679V20.1738H81.956ZM94.1916 20.1738V10.0587H97.2042V20.1738H94.1916ZM94.0719 8.40277V5.58969H97.3039V8.40277H94.0719ZM99.6664 24.4832V12.6922C99.6664 12.2666 99.6531 11.8343 99.6265 11.3954C99.5999 10.9432 99.56 10.4976 99.5068 10.0587H102.4L102.639 12.0338H102.42C102.619 11.3688 103.038 10.8434 103.677 10.4577C104.315 10.0587 105.047 9.85919 105.871 9.85919C106.749 9.85919 107.52 10.072 108.185 10.4976C108.85 10.9099 109.369 11.5085 109.742 12.2932C110.127 13.0779 110.32 14.0156 110.32 15.1063C110.32 16.2102 110.127 17.1546 109.742 17.9393C109.369 18.7241 108.85 19.3292 108.185 19.7549C107.52 20.1805 106.749 20.3933 105.871 20.3933C105.06 20.3933 104.335 20.2004 103.696 19.8147C103.071 19.429 102.652 18.9169 102.44 18.2785H102.679V24.4832H99.6664ZM104.953 18.1189C105.658 18.1189 106.224 17.8728 106.649 17.3807C107.075 16.8886 107.288 16.1304 107.288 15.1063C107.288 14.0821 107.075 13.3307 106.649 12.8518C106.224 12.373 105.658 12.1336 104.953 12.1336C104.262 12.1336 103.696 12.373 103.258 12.8518C102.832 13.3307 102.619 14.0821 102.619 15.1063C102.619 16.1304 102.832 16.8886 103.258 17.3807C103.696 17.8728 104.262 18.1189 104.953 18.1189Z" fill="white"/>
</svg>
