<svg width="415" height="227" viewBox="0 0 415 227" fill="none" xmlns="http://www.w3.org/2000/svg">
<g clip-path="url(#clip0_756_29195)">
<path d="M208.936 226.108C321.376 226.108 412.528 220.083 412.528 212.651C412.528 205.218 321.376 199.193 208.936 199.193C96.495 199.193 5.34375 205.218 5.34375 212.651C5.34375 220.083 96.495 226.108 208.936 226.108Z" fill="#F2F2F2"/>
<path d="M201.135 65.3281C167.965 65.3281 144.148 86.5766 144.148 136.156C144.148 192.347 167.965 207.22 201.135 207.22C234.306 207.22 259.541 190.93 259.541 136.156C259.541 77.605 234.306 65.3281 201.135 65.3281ZM201.353 188.569C178.379 188.569 166.376 175.111 166.376 136.193C166.376 101.853 178.87 83.7434 201.845 83.7434C224.819 83.7434 237.314 95.6386 237.314 136.193C237.314 174.13 224.328 188.569 201.353 188.569Z" fill="white"/>
<path d="M124.282 168.028H110.567V127.704C110.567 125.563 109.715 123.509 108.198 121.994C106.681 120.48 104.624 119.629 102.479 119.629H99.2656C98.2034 119.629 97.1517 119.838 96.1704 120.244C95.1891 120.649 94.2975 121.244 93.5465 121.994C92.7954 122.744 92.1997 123.634 91.7932 124.614C91.3867 125.594 91.1775 126.644 91.1775 127.704V168.028H52.4931C51.6973 168.028 50.915 167.823 50.2221 167.432C49.5292 167.041 48.9492 166.478 48.5384 165.798C48.1276 165.117 47.9 164.342 47.8776 163.548C47.8552 162.753 48.0388 161.967 48.4106 161.264L89.3538 83.8919C89.8642 82.9273 90.1736 81.8694 90.2633 80.782C90.3529 79.6947 90.221 78.6005 89.8754 77.5655C89.5299 76.5305 88.9778 75.5762 88.2527 74.76C87.5275 73.9439 86.6442 73.283 85.6562 72.8171L83.2392 71.6775C81.3624 70.7927 79.2168 70.662 77.2463 71.3126C75.2757 71.9632 73.6311 73.3452 72.6527 75.1728L22.7171 168.442C21.8667 170.03 21.4219 171.803 21.4219 173.604C21.4219 175.042 21.7056 176.466 22.2567 177.795C22.8079 179.123 23.6157 180.331 24.6341 181.347C25.6525 182.364 26.8615 183.171 28.1922 183.721C29.5228 184.271 30.9489 184.555 32.3891 184.555H91.1775V210.053C91.1775 211.324 91.4283 212.583 91.9155 213.757C92.4027 214.932 93.1168 215.999 94.0171 216.897C94.9173 217.796 95.9861 218.509 97.1623 218.996C98.3385 219.482 99.5992 219.733 100.872 219.733H100.872C102.146 219.733 103.406 219.482 104.582 218.996C105.759 218.509 106.827 217.796 107.728 216.897C108.628 215.999 109.342 214.932 109.829 213.757C110.316 212.583 110.567 211.324 110.567 210.053V184.555H124.282C126.477 184.555 128.582 183.684 130.134 182.134C131.686 180.585 132.558 178.483 132.558 176.291C132.558 174.1 131.686 171.998 130.134 170.448C128.582 168.899 126.477 168.028 124.282 168.028Z" fill="#3FFF00"/>
<path d="M378.251 168.028H364.536V127.704C364.536 125.563 363.684 123.509 362.167 121.994C360.65 120.48 358.593 119.629 356.448 119.629H353.234C352.172 119.629 351.12 119.838 350.139 120.244C349.158 120.649 348.266 121.244 347.515 121.994C346.764 122.744 346.168 123.634 345.762 124.614C345.355 125.594 345.146 126.644 345.146 127.704V168.028H306.462C305.666 168.028 304.884 167.823 304.191 167.432C303.498 167.041 302.918 166.478 302.507 165.798C302.096 165.117 301.869 164.342 301.846 163.548C301.824 162.753 302.008 161.967 302.379 161.264L343.322 83.8919C343.833 82.9273 344.142 81.8694 344.232 80.782C344.322 79.6947 344.19 78.6005 343.844 77.5655C343.499 76.5305 342.947 75.5762 342.221 74.76C341.496 73.9439 340.613 73.283 339.625 72.8171L337.208 71.6775C335.331 70.7927 333.186 70.662 331.215 71.3126C329.244 71.9632 327.6 73.3452 326.621 75.1728L276.686 168.442C275.835 170.03 275.391 171.803 275.391 173.604C275.391 176.509 276.546 179.294 278.603 181.347C280.66 183.401 283.449 184.555 286.358 184.555H345.146V210.053C345.146 212.62 346.168 215.082 347.986 216.897C349.804 218.713 352.27 219.733 354.841 219.733C357.412 219.733 359.878 218.713 361.696 216.897C363.515 215.082 364.536 212.62 364.536 210.053V184.555H378.251C380.446 184.555 382.551 183.684 384.103 182.134C385.655 180.585 386.527 178.483 386.527 176.291C386.527 174.1 385.655 171.998 384.103 170.448C382.551 168.899 380.446 168.028 378.251 168.028Z" fill="#3FFF00"/>
<path d="M128.067 163.307H114.352V122.984C114.352 121.923 114.143 120.873 113.737 119.893C113.33 118.914 112.734 118.023 111.983 117.274C111.232 116.524 110.341 115.929 109.359 115.523C108.378 115.117 107.326 114.908 106.264 114.908H103.051C100.906 114.908 98.8484 115.759 97.3316 117.274C95.8148 118.788 94.9627 120.842 94.9627 122.984V163.307H56.2783C55.4824 163.307 54.7001 163.102 54.0072 162.711C53.3143 162.32 52.7343 161.757 52.3236 161.077C51.9128 160.396 51.6852 159.621 51.6628 158.827C51.6404 158.033 51.824 157.246 52.1958 156.544L93.1389 79.1712C93.6494 78.2066 93.9588 77.1487 94.0484 76.0613C94.1381 74.974 94.0062 73.8798 93.6606 72.8448C93.315 71.8098 92.763 70.8554 92.0378 70.0393C91.3127 69.2232 90.4294 68.5623 89.4413 68.0964L87.0243 66.9568C85.1476 66.072 83.002 65.9413 81.0314 66.5919C79.0609 67.2425 77.4163 68.6245 76.4378 70.452L26.5022 163.721C25.6519 165.31 25.207 167.083 25.207 168.884V168.884C25.207 171.788 26.3625 174.573 28.4193 176.627C30.476 178.68 33.2656 179.834 36.1743 179.834H94.9627V205.332C94.9627 206.603 95.2134 207.862 95.7007 209.036C96.1879 210.211 96.902 211.278 97.8022 212.177C98.7025 213.076 99.7712 213.789 100.947 214.275C102.124 214.762 103.384 215.012 104.658 215.012H104.658C107.229 215.012 109.695 213.992 111.513 212.177C113.331 210.361 114.352 207.899 114.352 205.332V179.834H128.067C129.154 179.834 130.23 179.62 131.234 179.205C132.238 178.79 133.151 178.181 133.919 177.414C134.688 176.646 135.297 175.736 135.713 174.733C136.129 173.73 136.343 172.656 136.343 171.571V171.571C136.343 170.486 136.129 169.411 135.713 168.409C135.297 167.406 134.688 166.495 133.919 165.728C133.151 164.96 132.238 164.352 131.234 163.936C130.23 163.521 129.154 163.307 128.067 163.307V163.307Z" stroke="#3F3D56" stroke-width="0.574333" stroke-miterlimit="10"/>
<path d="M385.337 163.307H371.622V122.984C371.622 120.842 370.77 118.788 369.253 117.274C367.736 115.759 365.679 114.908 363.534 114.908H360.32C359.258 114.908 358.206 115.117 357.225 115.523C356.244 115.929 355.352 116.524 354.601 117.274C353.85 118.023 353.254 118.914 352.848 119.893C352.441 120.873 352.232 121.923 352.232 122.984V163.307H313.548C312.752 163.307 311.97 163.102 311.277 162.711C310.584 162.32 310.004 161.757 309.593 161.077C309.182 160.396 308.955 159.621 308.932 158.827C308.91 158.033 309.094 157.246 309.465 156.544L350.408 79.1712C350.919 78.2066 351.228 77.1487 351.318 76.0613C351.408 74.974 351.276 73.8798 350.93 72.8448C350.585 71.8098 350.033 70.8554 349.307 70.0393C348.582 69.2232 347.699 68.5623 346.711 68.0964L344.294 66.9568C342.417 66.072 340.272 65.9413 338.301 66.5919C336.33 67.2425 334.686 68.6245 333.707 70.452L283.772 163.721C282.921 165.31 282.477 167.083 282.477 168.884C282.477 171.788 283.632 174.573 285.689 176.627C287.746 178.68 290.535 179.834 293.444 179.834H352.232V205.332C352.232 207.899 353.254 210.361 355.072 212.177C356.89 213.992 359.356 215.012 361.927 215.012V215.012C364.498 215.012 366.964 213.992 368.782 212.177C370.6 210.361 371.622 207.899 371.622 205.332V179.834H385.337C386.423 179.834 387.5 179.62 388.504 179.205C389.508 178.79 390.42 178.181 391.189 177.414C391.957 176.646 392.567 175.736 392.983 174.733C393.399 173.73 393.613 172.656 393.613 171.571V171.571C393.613 169.379 392.741 167.277 391.189 165.728C389.637 164.178 387.532 163.307 385.337 163.307V163.307Z" stroke="#3F3D56" stroke-width="0.574333" stroke-miterlimit="10"/>
<path d="M208.702 61.0781C175.531 61.0781 151.715 82.3266 151.715 131.906C151.715 188.097 175.531 202.97 208.702 202.97C241.872 202.97 267.107 186.68 267.107 131.906C267.107 73.355 241.872 61.0781 208.702 61.0781ZM208.92 184.319C185.945 184.319 173.942 170.861 173.942 131.943C173.942 97.6025 186.436 79.4934 209.411 79.4934C232.386 79.4934 244.88 91.3886 244.88 131.943C244.88 169.88 231.894 184.319 208.92 184.319V184.319Z" stroke="#3F3D56" stroke-width="0.574333" stroke-miterlimit="10"/>
<path d="M182.108 12.9744C184.858 12.9744 187.087 10.7486 187.087 8.00283C187.087 5.2571 184.858 3.03125 182.108 3.03125C179.358 3.03125 177.129 5.2571 177.129 8.00283C177.129 10.7486 179.358 12.9744 182.108 12.9744Z" fill="#3B3B3B"/>
<path d="M194.255 37.1036C201.969 37.1036 208.222 29.0146 208.222 19.0362C208.222 9.05782 201.969 0.96875 194.255 0.96875C186.542 0.96875 180.289 9.05782 180.289 19.0362C180.289 29.0146 186.542 37.1036 194.255 37.1036Z" fill="#3B3B3B"/>
<path opacity="0.1" d="M194.255 31.6458C187.259 31.6458 181.464 24.9904 180.447 16.3066C180.342 17.2122 180.289 18.1232 180.289 19.0349C180.289 29.0133 186.542 37.1024 194.255 37.1024C201.969 37.1024 208.222 29.0133 208.222 19.0349C208.222 18.1232 208.169 17.2122 208.063 16.3066C207.046 24.9904 201.252 31.6458 194.255 31.6458Z" fill="white"/>
<path d="M222.677 71.9499C222.377 73.1806 221.083 74.1661 219.651 74.8547C216.64 76.3024 212.926 76.7345 209.323 76.8795C208.404 76.9352 207.482 76.9182 206.566 76.8286C204.79 76.6571 203.124 75.8925 201.837 74.6585C201.746 74.5987 201.67 74.5167 201.619 74.4201C201.567 74.3234 201.541 74.2153 201.543 74.1059C201.545 73.9964 201.574 73.8892 201.629 73.7942C201.683 73.6992 201.761 73.6195 201.854 73.5626C203.772 71.4589 206.973 70.1691 210.197 69.2404C212.642 68.5361 216.906 66.7121 219.572 66.9582C222.155 67.1967 223.055 70.3961 222.677 71.9499Z" fill="#3F3D56"/>
<path opacity="0.1" d="M222.677 71.9499C222.377 73.1806 221.083 74.1661 219.651 74.8547C216.64 76.3024 212.926 76.7345 209.323 76.8795C208.404 76.9352 207.482 76.9182 206.566 76.8286C204.79 76.6571 203.124 75.8925 201.837 74.6585C201.746 74.5987 201.67 74.5167 201.619 74.4201C201.567 74.3234 201.541 74.2153 201.543 74.1059C201.545 73.9964 201.574 73.8892 201.629 73.7942C201.683 73.6992 201.761 73.6195 201.854 73.5626C203.772 71.4589 206.973 70.1691 210.197 69.2404C212.642 68.5361 216.906 66.7121 219.572 66.9582C222.155 67.1967 223.055 70.3961 222.677 71.9499Z" fill="white"/>
<path d="M184.388 62.7485C183.469 64.5471 183.303 66.6366 183.926 68.5577C184.559 70.4642 185.745 72.1402 187.333 73.3734C191.229 76.4916 196.592 76.9207 201.585 76.8774C205.961 76.8394 210.33 76.5403 214.671 75.9819C216.125 75.8532 217.554 75.5219 218.917 74.9975C220.546 74.2935 221.978 73.0023 222.559 71.3267C223.139 69.6511 222.727 67.5993 221.349 66.4811C220.138 65.4986 218.469 65.3634 216.911 65.27L208.001 64.7353C208.881 63.8457 210.053 63.3426 211.125 62.6959C212.548 61.8379 213.493 60.3974 214.527 59.0987C216.12 57.1972 217.854 55.4174 219.714 53.7742C220.004 55.4352 221.056 56.7992 222.295 57.9453C223.533 59.0914 224.961 60.0141 226.248 61.1053C229.366 63.7483 231.611 67.3354 234.891 69.7761C237.146 69.1842 239.255 68.133 241.085 66.6885L239.81 64.3835C239.704 64.1463 239.539 63.9402 239.33 63.7851C238.969 63.5635 238.504 63.6777 238.085 63.615C236.966 63.4474 236.477 62.1568 236.037 61.115C234.831 58.255 232.522 56.036 230.55 53.6376C229.094 51.8671 227.803 49.9681 226.692 47.964C226.029 46.7688 225.423 45.5243 224.524 44.4946C223.625 43.4648 222.365 42.6552 220.997 42.6524C219.788 42.6498 218.673 43.2626 217.633 43.879C214.468 45.7565 211.422 47.8284 208.513 50.0828C206.991 51.2627 205.478 52.5092 203.693 53.2327C202.941 53.5373 202.149 53.7455 201.428 54.1161C200.164 54.7652 199.206 55.8634 198.173 56.8383C194.492 60.3155 189.453 62.5683 184.388 62.7485Z" fill="#3F3D56"/>
<path d="M203.024 38.0012C202.983 39.064 202.756 40.1116 202.355 41.0969C202.151 41.5883 201.849 42.0326 201.466 42.4021C201.083 42.7715 200.628 43.0583 200.129 43.2444C199.42 43.4339 198.678 43.4579 197.959 43.3147C197.331 43.2493 196.727 43.0437 196.19 42.7132C195.355 42.1397 194.938 41.1163 194.786 40.1147C194.635 39.1143 194.703 38.0921 194.605 37.0844C194.511 36.2705 194.356 35.4648 194.142 34.6738C194.076 34.4107 194.009 34.1488 193.944 33.8869C193.879 33.625 193.816 33.363 193.758 33.1011C193.704 32.855 193.654 32.6076 193.612 32.359C193.577 32.1492 193.545 31.9383 193.522 31.726C193.501 31.097 193.396 30.4735 193.21 29.872C193.036 29.4819 192.817 29.113 192.559 28.7722C192.449 28.6146 192.342 28.4569 192.243 28.2932C191.959 27.8678 191.827 27.3589 191.868 26.8491C191.88 26.7702 191.899 26.6927 191.925 26.6175C191.935 26.5884 191.946 26.5593 191.958 26.5314C192.067 26.5018 192.168 26.4459 192.25 26.3688C192.333 26.2917 192.396 26.1955 192.433 26.0887C192.475 25.8593 192.455 25.623 192.376 25.4036C192.285 25.0971 192.161 24.8015 192.005 24.5221C191.903 24.3378 191.557 24.0055 191.555 23.7945C191.55 23.3701 192.381 23.0282 192.717 22.8608C193.744 22.3474 194.889 22.1156 196.035 22.1891C196.77 22.2388 197.566 22.4643 197.972 23.0791C198.336 23.6333 198.288 24.3511 198.443 24.995C198.459 25.0886 198.499 25.1766 198.559 25.2508C198.638 25.323 198.737 25.3687 198.844 25.3818C199.024 25.4175 199.208 25.4249 199.39 25.4036H199.392C199.44 25.3998 199.488 25.3929 199.535 25.383C199.819 25.3307 200.087 25.2151 200.319 25.0447C200.47 25.0047 200.622 24.9719 200.775 24.9465C200.781 24.9459 200.787 24.9446 200.793 24.9428C201.402 26.8599 201.481 28.9153 201.978 30.8675C202.225 31.8388 202.578 32.7979 202.628 33.7971C202.632 33.8408 202.633 33.8856 202.634 33.9305C202.642 34.2518 202.616 34.5756 202.629 34.8957C202.634 35.0399 202.65 35.1834 202.678 35.325C202.732 35.5526 202.8 35.7769 202.881 35.9967L202.884 36.0076C202.907 36.078 202.929 36.1495 202.948 36.2211C202.961 36.2732 202.973 36.3241 202.983 36.3763L202.984 36.3799C203.074 36.9157 203.087 37.4616 203.024 38.0012Z" fill="#FBBEBE"/>
<path d="M194.497 25.4647C198.455 25.4647 201.663 22.2616 201.663 18.3105C201.663 14.3593 198.455 11.1562 194.497 11.1562C190.54 11.1562 187.332 14.3593 187.332 18.3105C187.332 22.2616 190.54 25.4647 194.497 25.4647Z" fill="#FBBEBE"/>
<path d="M239.989 57.2884C239.782 55.3365 239.087 53.4679 237.968 51.8536C238.154 52.957 238.34 54.0601 238.527 55.1627C238.295 55.2297 238.048 55.2277 237.818 55.1568C237.587 55.086 237.382 54.9493 237.228 54.7638C236.926 54.3876 236.695 53.9599 236.546 53.5015C235.732 51.4837 234.668 49.576 233.378 47.823C228.816 47.4434 224.307 45.5554 220.295 43.3546C216.283 41.155 212.528 38.5176 208.569 36.2246C207.882 35.8104 207.167 35.4457 206.429 35.1333C205.19 34.6373 203.799 34.3803 202.625 33.797C202.546 33.7582 202.467 33.717 202.389 33.6746C202.124 33.5305 201.873 33.362 201.639 33.1713C201.513 33.0688 201.392 32.9587 201.279 32.8415C200.694 32.1609 200.229 31.3849 199.906 30.5473C199.276 29.1553 199.051 27.4759 198.422 26.0838C198.711 25.814 199.036 25.5851 199.387 25.4036H199.389C199.44 25.3769 199.491 25.3514 199.543 25.3272C199.792 25.2101 200.051 25.1156 200.316 25.0446C200.467 25.0046 200.619 24.9719 200.772 24.9464C200.778 24.9458 200.784 24.9446 200.79 24.9428C201.5 24.8273 202.227 24.8847 202.909 25.1101C203.908 25.4472 204.749 26.1202 205.588 26.7568C206.952 27.7158 208.259 28.7514 209.505 29.8586C210.197 30.5206 210.829 31.2482 211.573 31.8496C212.192 32.3263 212.844 32.7579 213.525 33.141C217.553 35.5371 221.582 37.9327 225.611 40.328C226.975 41.1392 228.34 41.9504 229.674 42.8089C231.699 44.1137 233.652 45.5275 235.604 46.9402C236.754 47.772 237.904 48.6042 239.053 49.4369C239.43 49.6771 239.761 49.9826 240.03 50.339C240.269 50.7438 240.416 51.195 240.464 51.662C240.753 53.5486 240.59 55.4766 239.989 57.2884Z" fill="#FBBEBE"/>
<path d="M204.801 43.3821C204.318 45.5466 202.127 46.855 200.981 48.7563C199.558 51.116 200.139 53.8588 200.673 56.5616C199.697 57.402 198.72 58.2423 197.742 59.0826C197.203 59.5446 196.664 60.009 196.084 60.4177C195.237 60.9839 194.352 61.4912 193.436 61.9358C192.571 62.3796 191.707 62.8238 190.842 63.2684C190.038 63.7197 189.186 64.0801 188.303 64.3428C186.599 64.7793 184.789 64.4737 183.103 63.9681C182.905 63.916 182.714 63.8382 182.535 63.7365C182.43 63.6739 182.338 63.591 182.265 63.4928C182.099 63.1953 182.039 62.8503 182.094 62.5142C182.265 59.6816 182.959 56.9084 183.65 54.1559C184.019 52.5045 184.516 50.8842 185.135 49.3092C185.743 47.9597 186.441 46.6528 187.225 45.3974C188.091 43.8179 189.116 42.3312 190.286 40.9606C190.855 40.433 191.334 39.8162 191.704 39.1344C192.135 38.1523 191.969 37.0258 192.056 35.9563C192.123 35.1527 192.337 34.3682 192.687 33.6415V33.6402C192.874 33.2488 193.099 32.8767 193.36 32.5295C193.477 32.8036 193.595 33.0772 193.713 33.3504C193.791 33.5299 193.868 33.709 193.944 33.8876C194.043 34.118 194.142 34.3476 194.24 34.5764C194.523 35.2336 194.806 35.8904 195.088 36.5468C195.393 37.3736 195.827 38.1467 196.375 38.8374C196.625 39.191 196.963 39.4738 197.356 39.6581C197.749 39.8423 198.182 39.9218 198.615 39.8887C199.047 39.8555 199.464 39.711 199.824 39.4692C200.184 39.2273 200.475 38.8964 200.668 38.5088C201.076 37.7852 201.372 37.0038 201.545 36.1915C201.785 35.2024 201.818 34.1746 201.642 33.1722C201.349 31.2418 200.527 29.2701 199.93 27.4767C199.687 26.8787 199.546 26.2442 199.513 25.5996C199.514 25.5272 199.522 25.455 199.535 25.3838C199.539 25.3656 199.542 25.3462 199.546 25.328C199.795 25.211 200.054 25.1164 200.32 25.0455C200.47 25.0055 200.622 24.9727 200.775 24.9473C201.301 27.7896 201.828 30.6318 202.355 33.4741C202.367 33.5408 202.381 33.6075 202.393 33.6754C202.468 34.0828 202.544 34.4903 202.629 34.8965C202.706 35.2651 202.789 35.6325 202.881 35.9975L202.885 36.0084C202.916 36.1321 202.949 36.2546 202.983 36.3771L202.984 36.3807C203.078 36.7154 203.182 37.0476 203.3 37.375C204.014 39.3479 205.259 41.3341 204.801 43.3821Z" fill="#3FFF00"/>
<path d="M233.879 73.8028C233.856 74.2197 233.937 74.6358 234.114 75.0141C234.563 75.8324 235.639 76.0184 236.57 76.0949C242.009 76.5413 247.481 76.3749 252.882 75.5987C253.176 75.5787 253.46 75.4906 253.713 75.3414C254.481 74.8038 254.007 73.4936 253.169 73.0741C252.33 72.6547 251.335 72.7558 250.415 72.5741C249.501 72.3444 248.63 71.9674 247.837 71.4581C245.971 70.3877 244.133 69.2716 242.321 68.1101C241.242 67.4185 239.969 66.6804 238.755 67.0905C235.464 68.2018 233.857 70.2589 233.879 73.8028Z" fill="#3F3D56"/>
<path d="M193.782 32.9527V32.9539C193.774 33.0048 193.765 33.0545 193.754 33.1043C193.741 33.1867 193.725 33.2704 193.709 33.3528C193.559 34.1228 193.374 34.8892 193.162 35.6507C192.579 37.7545 191.798 39.8244 191.023 41.8639C188.944 47.3327 186.864 52.8018 184.784 58.2713C184.26 59.6488 183.736 61.0275 183.14 62.3771C182.941 62.827 182.735 63.2805 182.531 63.7389C181.8 65.3795 181.098 67.0735 180.865 68.8196C180.648 69.9688 180.623 71.146 180.791 72.3033C181.024 73.448 181.72 74.566 182.81 74.9892C183.341 75.1965 184.103 75.4742 183.957 76.0259C183.878 76.3291 183.533 76.477 183.224 76.5279C182.815 76.593 182.396 76.5674 181.998 76.453C181.601 76.3386 181.233 76.1382 180.921 75.8659C180.339 75.3505 179.892 74.549 179.119 74.4629C178.583 74.4047 178.09 74.7248 177.599 74.9492C175.598 75.8622 173.266 75.2232 171.164 74.5745C171.329 73.7245 172.184 73.1643 173.033 72.9945C173.882 72.8235 174.76 72.9448 175.626 72.9217C175.903 72.9365 176.178 72.8658 176.414 72.7192C176.625 72.5256 176.774 72.2729 176.839 71.9941C177.397 70.3439 177.812 68.649 178.079 66.928C178.359 65.1297 178.475 63.3036 178.873 61.5271C179.183 60.1411 179.662 58.7988 180.072 57.4383C180.866 54.6371 181.518 51.7976 182.025 48.9308C182.281 47.7398 182.465 46.5343 182.575 45.321C182.644 44.3146 182.612 43.3033 182.709 42.3005C182.872 40.9958 183.144 39.7071 183.524 38.4481C183.895 37.0742 184.266 35.7012 184.637 34.329C185.187 32.2979 185.778 30.188 187.172 28.6092C187.656 28.0534 188.249 27.6028 188.915 27.2854C189.581 26.9679 190.305 26.7903 191.042 26.7637C191.319 26.7633 191.594 26.793 191.865 26.8522C191.909 26.8631 191.954 26.874 191.999 26.8861C192.294 26.963 192.576 27.0796 192.839 27.2329C193.268 26.9601 193.487 27.0559 193.772 27.4767C194.023 27.922 194.141 28.4292 194.113 28.939C194.137 30.2846 194.026 31.6291 193.782 32.9527Z" fill="#FBBEBE"/>
<path d="M194.255 34.5552L194.237 34.5734L194.139 34.6716L193.162 35.6453L192.684 33.6385L191.043 26.7583C191.319 26.758 191.595 26.7877 191.865 26.8468C191.877 26.768 191.896 26.6905 191.922 26.6152L192 26.8808L192.556 28.77L193.609 32.3568L193.783 32.9473V32.9485L194.255 34.5552Z" fill="#3FFF00"/>
<path d="M200.45 12.6072C200.449 13.2443 200.323 13.8749 200.077 14.4631C199.832 15.0513 199.474 15.5856 199.022 16.0353C198.858 16.1989 198.683 16.3505 198.497 16.4886C197.659 17.1194 196.638 17.4608 195.588 17.4613H189.762C188.474 17.4593 187.24 16.9473 186.331 16.0376C185.421 15.1279 184.91 13.895 184.91 12.6095C184.91 11.3241 185.421 10.0912 186.331 9.1815C187.24 8.27184 188.474 7.7598 189.762 7.75781H195.588C196.876 7.76116 198.11 8.273 199.021 9.18157C199.931 10.0901 200.445 11.3216 200.45 12.6072Z" fill="#3B3B3B"/>
<path d="M205.917 12.9744C208.667 12.9744 210.896 10.7486 210.896 8.00283C210.896 5.2571 208.667 3.03125 205.917 3.03125C203.167 3.03125 200.938 5.2571 200.938 8.00283C200.938 10.7486 203.167 12.9744 205.917 12.9744Z" fill="#3B3B3B"/>
<path opacity="0.1" d="M205.788 3.03125C205.727 3.03125 205.666 3.03367 205.605 3.03585C206.894 3.0826 208.113 3.62638 209.008 4.55276C209.903 5.47914 210.403 6.7159 210.403 8.00283C210.403 9.28976 209.903 10.5265 209.008 11.4529C208.113 12.3793 206.894 12.9231 205.605 12.9698C205.666 12.972 205.727 12.9744 205.788 12.9744C207.108 12.9744 208.375 12.4506 209.309 11.5183C210.242 10.5859 210.767 9.32138 210.767 8.00283C210.767 6.68429 210.242 5.41975 209.309 4.48739C208.375 3.55504 207.108 3.03125 205.788 3.03125Z" fill="white"/>
<path opacity="0.1" d="M182.108 3.03125C182.169 3.03125 182.229 3.03367 182.29 3.03585C181.002 3.0826 179.782 3.62638 178.887 4.55276C177.993 5.47914 177.493 6.7159 177.493 8.00283C177.493 9.28976 177.993 10.5265 178.887 11.4529C179.782 12.3793 181.002 12.9231 182.29 12.9698C182.229 12.972 182.169 12.9744 182.108 12.9744C180.788 12.9732 179.523 12.4489 178.59 11.5167C177.657 10.5845 177.133 9.32062 177.133 8.00283C177.133 6.68505 177.657 5.42117 178.59 4.48894C179.523 3.55671 180.788 3.03241 182.108 3.03125Z" fill="white"/>
<path opacity="0.1" d="M198.495 16.4863C197.657 17.1171 196.636 17.4585 195.586 17.459H189.76C188.711 17.4585 187.69 17.1171 186.852 16.4863H198.495Z" fill="white"/>
<path d="M236.121 52.5118C236.121 52.5118 237.376 56.1227 238.525 55.1613L237.609 50.4414L236.121 52.5118Z" fill="#FBBEBE"/>
<path d="M388.885 162.646C390.054 163.07 391.306 163.218 392.542 163.077C393.778 162.935 394.964 162.51 396.007 161.833C397.05 161.156 397.921 160.246 398.552 159.176C399.183 158.105 399.556 156.903 399.643 155.664C399.729 154.425 399.526 153.182 399.049 152.035C398.572 150.888 397.835 149.867 396.896 149.052C395.957 148.238 394.841 147.653 393.636 147.342C392.431 147.032 391.171 147.005 389.954 147.264L390.155 151.392L388.199 147.854C386.28 148.755 384.796 150.38 384.076 152.372C383.82 153.07 383.664 153.8 383.614 154.541C383.49 156.281 383.938 158.013 384.889 159.475C385.84 160.938 387.243 162.051 388.885 162.646Z" fill="#57B894"/>
<path d="M398.564 210.525C397.874 207.015 400.866 203.902 403.821 201.879C406.777 199.856 410.23 197.869 411.238 194.435C412.688 189.501 408.371 184.983 405.011 181.086C402.518 178.194 400.377 175.017 398.633 171.622C397.934 170.261 397.292 168.838 397.108 167.319C396.843 165.132 397.547 162.956 398.256 160.87C400.618 153.92 403.143 147.029 405.831 140.195" stroke="#3F3D56" stroke-width="0.574333" stroke-miterlimit="10"/>
<path d="M389.209 161.581C390.378 162.006 391.63 162.153 392.866 162.012C394.102 161.871 395.288 161.445 396.331 160.768C397.374 160.091 398.246 159.182 398.876 158.111C399.507 157.041 399.881 155.838 399.967 154.599C400.053 153.36 399.85 152.118 399.373 150.971C398.896 149.823 398.159 148.802 397.22 147.988C396.281 147.173 395.165 146.588 393.96 146.278C392.756 145.967 391.495 145.941 390.279 146.2L390.48 150.328L388.524 146.79C386.604 147.691 385.121 149.315 384.4 151.307C384.144 152.005 383.989 152.736 383.938 153.477C383.815 155.216 384.262 156.948 385.213 158.411C386.165 159.873 387.567 160.986 389.209 161.581V161.581Z" stroke="#3F3D56" stroke-width="0.574333" stroke-miterlimit="10"/>
<path d="M397.572 138.769C398.03 137.505 398.8 136.377 399.811 135.488C400.821 134.599 402.039 133.979 403.353 133.684L404.015 137.608L405.241 133.486C406.943 133.512 408.594 134.076 409.954 135.099C411.314 136.122 412.313 137.55 412.807 139.177C413.302 140.803 413.265 142.545 412.704 144.15C412.142 145.755 411.084 147.14 409.683 148.105C408.281 149.071 406.609 149.567 404.907 149.521C403.205 149.476 401.561 148.891 400.213 147.852C398.866 146.813 397.883 145.374 397.408 143.741C396.934 142.109 396.991 140.368 397.572 138.769H397.572Z" fill="#57B894"/>
<path d="M398.013 137.349C398.472 136.085 399.242 134.957 400.252 134.068C401.263 133.179 402.481 132.559 403.795 132.264L404.456 136.188L405.682 132.066C407.385 132.092 409.035 132.656 410.395 133.679C411.755 134.702 412.755 136.13 413.249 137.757C413.743 139.384 413.707 141.125 413.145 142.73C412.584 144.335 411.526 145.72 410.124 146.686C408.723 147.651 407.05 148.147 405.348 148.101C403.646 148.056 402.002 147.471 400.655 146.432C399.307 145.394 398.325 143.954 397.85 142.321C397.375 140.689 397.432 138.948 398.013 137.349H398.013Z" stroke="#3F3D56" stroke-width="0.574333" stroke-miterlimit="10"/>
<path d="M403.595 181.166C405.449 181.837 407.486 181.804 409.317 181.073C411.148 180.341 412.646 178.962 413.524 177.199C414.403 175.436 414.601 173.412 414.081 171.512C413.56 169.612 412.358 167.97 410.703 166.899L409.761 170.066L409.093 166.096C409.087 166.092 409.08 166.09 409.073 166.088C408.081 165.728 407.028 165.567 405.974 165.613C404.92 165.66 403.885 165.913 402.929 166.359C401.973 166.805 401.114 167.435 400.402 168.213C399.69 168.99 399.138 169.9 398.778 170.89C398.419 171.881 398.258 172.932 398.305 173.985C398.352 175.037 398.607 176.07 399.054 177.024C399.501 177.979 400.133 178.836 400.912 179.546C401.691 180.257 402.602 180.807 403.594 181.166H403.595Z" fill="#57B894"/>
<path d="M403.973 179.73C405.828 180.402 407.864 180.369 409.696 179.637C411.527 178.906 413.025 177.527 413.903 175.764C414.782 174 414.98 171.976 414.46 170.077C413.939 168.177 412.737 166.535 411.082 165.463L410.14 168.631L409.472 164.66C409.465 164.657 409.459 164.654 409.452 164.652C408.46 164.292 407.407 164.131 406.353 164.178C405.298 164.224 404.264 164.478 403.308 164.924C402.352 165.37 401.493 166 400.781 166.777C400.069 167.554 399.517 168.464 399.157 169.455C398.797 170.445 398.637 171.497 398.684 172.549C398.731 173.602 398.986 174.635 399.433 175.589C399.88 176.543 400.511 177.4 401.29 178.111C402.07 178.821 402.981 179.372 403.973 179.73H403.973Z" stroke="#3F3D56" stroke-width="0.574333" stroke-miterlimit="10"/>
<path d="M395.233 194.487C395.552 196.299 396.484 197.945 397.875 199.151C399.265 200.358 401.029 201.05 402.87 201.111C404.711 201.173 406.517 200.601 407.985 199.491C409.454 198.382 410.496 196.801 410.936 195.015C411.376 193.23 411.188 191.347 410.403 189.684C409.618 188.02 408.284 186.676 406.624 185.878C404.965 185.08 403.081 184.876 401.289 185.3C399.497 185.724 397.905 186.75 396.781 188.207L400.36 193.585L395.469 190.731C395.09 191.946 395.009 193.234 395.233 194.487Z" fill="#57B894"/>
<path d="M395.561 193.421C395.88 195.232 396.813 196.879 398.203 198.085C399.594 199.291 401.357 199.983 403.198 200.045C405.039 200.107 406.845 199.535 408.313 198.425C409.782 197.315 410.824 195.735 411.264 193.949C411.704 192.163 411.516 190.281 410.731 188.617C409.946 186.954 408.612 185.61 406.952 184.812C405.293 184.014 403.409 183.81 401.617 184.234C399.825 184.658 398.233 185.684 397.109 187.141L400.688 192.519L395.798 189.664C395.418 190.88 395.337 192.168 395.561 193.421V193.421Z" stroke="#3F3D56" stroke-width="0.574333" stroke-miterlimit="10"/>
<path d="M3.74573 182.185C4.5139 182.464 5.33643 182.56 6.14849 182.468C6.96055 182.375 7.73995 182.095 8.42525 181.65C9.11055 181.206 9.68302 180.608 10.0975 179.905C10.5121 179.201 10.7573 178.412 10.8139 177.597C10.8705 176.783 10.737 175.967 10.4238 175.213C10.1106 174.46 9.62637 173.789 9.00922 173.254C8.39206 172.719 7.65887 172.334 6.86743 172.13C6.076 171.926 5.24795 171.909 4.44856 172.079L4.58066 174.791L3.29547 172.467C2.03414 173.058 1.05971 174.126 0.586309 175.435C0.418186 175.893 0.315979 176.373 0.282739 176.86C0.201617 178.003 0.495797 179.141 1.1207 180.102C1.7456 181.063 2.66716 181.794 3.74573 182.185Z" fill="#57B894"/>
<path d="M10.1114 213.642C9.65775 211.335 11.6236 209.29 13.5654 207.961C15.5072 206.632 17.7761 205.326 18.4386 203.07C19.3908 199.829 16.5545 196.86 14.347 194.299C12.7091 192.399 11.3027 190.312 10.1569 188.082C9.65879 187.206 9.31951 186.249 9.1547 185.255C8.98064 183.818 9.44301 182.388 9.90883 181.017C11.4606 176.451 13.1197 171.923 14.8862 167.434" stroke="#3F3D56" stroke-width="0.574333" stroke-miterlimit="10"/>
<path d="M3.96839 181.484C4.73656 181.762 5.55909 181.859 6.37115 181.767C7.18321 181.674 7.96261 181.394 8.6479 180.949C9.3332 180.505 9.90567 179.907 10.3202 179.204C10.7347 178.5 10.9799 177.71 11.0365 176.896C11.0932 176.082 10.9596 175.266 10.6464 174.512C10.3333 173.758 9.84902 173.087 9.23187 172.552C8.61471 172.017 7.88152 171.633 7.09009 171.429C6.29866 171.225 5.47061 171.207 4.67122 171.378L4.80332 174.09L3.51813 171.765C2.2568 172.357 1.28236 173.425 0.808966 174.733C0.640844 175.192 0.538639 175.672 0.505397 176.159C0.42427 177.302 0.718447 178.44 1.34335 179.4C1.96825 180.361 2.88981 181.093 3.96839 181.484V181.484Z" stroke="#3F3D56" stroke-width="0.574333" stroke-miterlimit="10"/>
<path d="M9.46881 166.496C9.77027 165.666 10.2762 164.925 10.9401 164.341C11.6039 163.757 12.4043 163.349 13.2674 163.155L13.702 165.733L14.5076 163.025C15.6262 163.042 16.7105 163.413 17.6041 164.085C18.4977 164.757 19.1543 165.695 19.4791 166.764C19.8038 167.833 19.78 168.977 19.411 170.032C19.042 171.086 18.3469 171.996 17.4261 172.63C16.5053 173.265 15.4064 173.59 14.2881 173.561C13.1698 173.531 12.09 173.147 11.2045 172.464C10.319 171.782 9.67368 170.836 9.3617 169.763C9.04972 168.69 9.08723 167.546 9.46881 166.496Z" fill="#57B894"/>
<path d="M9.75397 165.563C10.0554 164.732 10.5614 163.991 11.2252 163.407C11.8891 162.823 12.6894 162.415 13.5526 162.221L13.9871 164.8L14.7928 162.092C15.9113 162.108 16.9957 162.479 17.8893 163.151C18.7829 163.823 19.4394 164.762 19.7642 165.83C20.089 166.899 20.0652 168.044 19.6961 169.098C19.3271 170.152 18.6321 171.063 17.7113 171.697C16.7905 172.331 15.6916 172.657 14.5733 172.627C13.455 172.597 12.3751 172.213 11.4896 171.531C10.6042 170.848 9.95883 169.902 9.64686 168.829C9.33488 167.757 9.37239 166.613 9.75397 165.563V165.563Z" stroke="#3F3D56" stroke-width="0.574333" stroke-miterlimit="10"/>
<path d="M13.419 194.349C14.6372 194.79 15.9755 194.768 17.1787 194.288C18.3819 193.807 19.3658 192.901 19.9431 191.743C20.5203 190.584 20.6504 189.254 20.3086 188.006C19.9668 186.758 19.177 185.679 18.0897 184.975L17.4707 187.056L17.0317 184.447C17.0274 184.445 17.0229 184.444 17.0183 184.442C16.3667 184.206 15.6747 184.1 14.982 184.13C14.2893 184.161 13.6095 184.327 12.9813 184.62C12.353 184.913 11.7888 185.327 11.3208 185.838C10.8529 186.349 10.4903 186.946 10.2538 187.597C10.0174 188.248 9.9117 188.939 9.94282 189.631C9.97394 190.322 10.1412 191.001 10.4352 191.628C10.7291 192.255 11.144 192.818 11.6559 193.285C12.1679 193.752 12.767 194.113 13.419 194.349Z" fill="#57B894"/>
<path d="M13.6652 193.406C14.8834 193.847 16.2216 193.825 17.4248 193.345C18.628 192.864 19.612 191.958 20.1892 190.8C20.7665 189.641 20.8966 188.311 20.5548 187.063C20.213 185.815 19.4231 184.736 18.3359 184.032L17.7168 186.113L17.2779 183.505C17.2735 183.502 17.269 183.501 17.2644 183.499C16.6129 183.263 15.9213 183.158 15.229 183.189C14.5366 183.22 13.8572 183.387 13.2294 183.68C11.9615 184.272 10.9811 185.342 10.5038 186.656C10.0265 187.97 10.0915 189.419 10.6843 190.685C11.2772 191.951 12.3494 192.929 13.6652 193.406V193.406Z" stroke="#3F3D56" stroke-width="0.574333" stroke-miterlimit="10"/>
<path d="M7.92092 203.1C8.13038 204.29 8.7433 205.372 9.65687 206.164C10.5704 206.957 11.7291 207.411 12.9386 207.452C14.148 207.493 15.3347 207.117 16.2996 206.388C17.2645 205.659 17.9489 204.62 18.2381 203.447C18.5273 202.274 18.4036 201.037 17.8878 199.944C17.3721 198.851 16.4956 197.968 15.4053 197.444C14.3151 196.919 13.0774 196.785 11.8999 197.064C10.7224 197.342 9.67657 198.017 8.93791 198.974L11.2893 202.507L8.07643 200.632C7.82732 201.43 7.77399 202.277 7.92092 203.1Z" fill="#57B894"/>
<path d="M8.13967 202.403C8.34913 203.593 8.96205 204.675 9.87562 205.467C10.7892 206.26 11.9479 206.714 13.1573 206.755C14.3668 206.796 15.5535 206.42 16.5184 205.691C17.4833 204.961 18.1677 203.923 18.4568 202.75C18.746 201.576 18.6223 200.34 18.1066 199.247C17.5908 198.154 16.7143 197.271 15.6241 196.746C14.5338 196.222 13.2962 196.088 12.1186 196.367C10.9411 196.645 9.89532 197.319 9.15666 198.277L11.508 201.81L8.29518 199.935C8.04607 200.733 7.99274 201.58 8.13967 202.403V202.403Z" stroke="#3F3D56" stroke-width="0.574333" stroke-miterlimit="10"/>
<path d="M185.893 132.421C189.517 132.421 192.455 128.625 192.455 123.943C192.455 119.261 189.517 115.465 185.893 115.465C182.27 115.465 179.332 119.261 179.332 123.943C179.332 128.625 182.27 132.421 185.893 132.421Z" fill="white"/>
<path d="M221.596 132.614C225.22 132.614 228.158 128.818 228.158 124.136C228.158 119.454 225.22 115.658 221.596 115.658C217.973 115.658 215.035 119.454 215.035 124.136C215.035 128.818 217.973 132.614 221.596 132.614Z" fill="white"/>
<path d="M216.582 149.185C216.582 153.015 211.225 156.121 204.617 156.121C198.009 156.121 192.652 153.015 192.652 149.185C192.652 145.867 196.67 143.092 202.039 142.414C202.894 142.301 203.755 142.246 204.617 142.248C206.062 142.243 207.502 142.399 208.913 142.711C213.397 143.709 216.582 146.233 216.582 149.185Z" fill="white"/>
<path d="M187.44 130.495C191.064 130.495 194.001 126.699 194.001 122.017C194.001 117.335 191.064 113.539 187.44 113.539C183.816 113.539 180.879 117.335 180.879 122.017C180.879 126.699 183.816 130.495 187.44 130.495Z" stroke="#3F3D56" stroke-width="0.574333" stroke-miterlimit="10"/>
<path d="M223.147 130.682C226.771 130.682 229.708 126.887 229.708 122.204C229.708 117.522 226.771 113.727 223.147 113.727C219.524 113.727 216.586 117.522 216.586 122.204C216.586 126.887 219.524 130.682 223.147 130.682Z" stroke="#3F3D56" stroke-width="0.574333" stroke-miterlimit="10"/>
<path d="M206.164 154.195C212.772 154.195 218.128 151.09 218.128 147.259C218.128 143.428 212.772 140.322 206.164 140.322C199.556 140.322 194.199 143.428 194.199 147.259C194.199 151.09 199.556 154.195 206.164 154.195Z" stroke="#3F3D56" stroke-width="0.574333" stroke-miterlimit="10"/>
<path d="M209.053 143.286C209.056 143.771 208.874 144.238 208.543 144.593C208.387 144.763 208.198 144.899 207.986 144.993C207.775 145.086 207.547 145.135 207.316 145.136H203.456C202.981 145.119 202.531 144.915 202.206 144.569C201.88 144.222 201.705 143.761 201.72 143.286C201.718 142.91 201.828 142.542 202.036 142.23C202.89 142.11 203.752 142.051 204.614 142.053C206.061 142.048 207.502 142.214 208.91 142.546C209.005 142.781 209.054 143.032 209.053 143.286Z" fill="white"/>
<path d="M187.437 121.628C188.503 121.628 189.367 120.766 189.367 119.702C189.367 118.638 188.503 117.775 187.437 117.775C186.372 117.775 185.508 118.638 185.508 119.702C185.508 120.766 186.372 121.628 187.437 121.628Z" fill="white"/>
<path d="M223.336 121.628C224.401 121.628 225.265 120.766 225.265 119.702C225.265 118.638 224.401 117.775 223.336 117.775C222.27 117.775 221.406 118.638 221.406 119.702C221.406 120.766 222.27 121.628 223.336 121.628Z" fill="white"/>
<path opacity="0.3" d="M225.265 139.742C226.331 139.742 227.195 138.879 227.195 137.815C227.195 136.751 226.331 135.889 225.265 135.889C224.2 135.889 223.336 136.751 223.336 137.815C223.336 138.879 224.2 139.742 225.265 139.742Z" fill="#3FFF00"/>
<path opacity="0.3" d="M178.176 139.742C179.241 139.742 180.105 138.879 180.105 137.815C180.105 136.751 179.241 135.889 178.176 135.889C177.11 135.889 176.246 136.751 176.246 137.815C176.246 138.879 177.11 139.742 178.176 139.742Z" fill="#3FFF00"/>
</g>
<defs>
<clipPath id="clip0_756_29195">
<rect width="414.668" height="225.138" fill="white" transform="translate(0.269531 0.96875)"/>
</clipPath>
</defs>
</svg>
