<svg width="51" height="52" viewBox="0 0 51 52" fill="none" xmlns="http://www.w3.org/2000/svg">
<path opacity="0.35" d="M25.011 24.5571C29.2595 24.5571 32.7036 21.113 32.7036 16.8645C32.7036 12.616 29.2595 9.17188 25.011 9.17188C20.7625 9.17188 17.3184 12.616 17.3184 16.8645C17.3184 21.113 20.7625 24.5571 25.011 24.5571Z" fill="#3FFF00"/>
<path opacity="0.35" d="M10.5872 28.4049C13.2425 28.4049 15.3951 26.2523 15.3951 23.597C15.3951 20.9416 13.2425 18.7891 10.5872 18.7891C7.93186 18.7891 5.7793 20.9416 5.7793 23.597C5.7793 26.2523 7.93186 28.4049 10.5872 28.4049Z" fill="#3FFF00"/>
<path opacity="0.35" d="M39.4368 28.4049C42.0921 28.4049 44.2447 26.2523 44.2447 23.597C44.2447 20.9416 42.0921 18.7891 39.4368 18.7891C36.7815 18.7891 34.6289 20.9416 34.6289 23.597C34.6289 26.2523 36.7815 28.4049 39.4368 28.4049Z" fill="#3FFF00"/>
<path d="M30.7791 41.8664H19.2402C16.0535 41.8664 13.4707 38.8528 13.4707 35.1354C13.4707 31.4179 16.0535 28.4043 19.2402 28.4043H30.7791C33.9658 28.4043 36.5486 31.4179 36.5486 35.1354C36.5486 38.8528 33.9658 41.8664 30.7791 41.8664Z" fill="#3FFF00"/>
<path opacity="0.35" d="M43.3796 32.252H6.49532C3.97599 32.252 1.93359 34.2943 1.93359 36.8137V37.3079C1.93359 39.8253 3.97599 41.8677 6.49532 41.8677H43.3796C45.9797 41.8677 48.0894 39.758 48.0894 37.156V36.9618C48.0894 34.3617 45.9797 32.252 43.3796 32.252Z" fill="#3FFF00"/>
</svg>
