<svg width="19" height="19" viewBox="0 0 19 19" fill="none" xmlns="http://www.w3.org/2000/svg">
<g id="24 / Presentation">
<path id="Vector" d="M15.9896 0.943359H2.24935C1.84444 0.943359 1.45612 1.10421 1.16981 1.39052C0.883504 1.67683 0.722656 2.06515 0.722656 2.47005C0.722656 2.87496 0.883504 3.26328 1.16981 3.54959C1.45612 3.8359 1.84444 3.99674 2.24935 3.99674V11.6302C2.24935 12.2376 2.49062 12.82 2.92009 13.2495C3.34955 13.679 3.93203 13.9202 4.53939 13.9202H7.53171L5.49158 16.5185C5.37246 16.6771 5.31973 16.8758 5.34455 17.0726C5.36937 17.2693 5.4698 17.4487 5.62457 17.5727C5.77934 17.6967 5.9763 17.7556 6.17374 17.737C6.37118 17.7183 6.55361 17.6235 6.6824 17.4727L9.11947 14.4012L11.5983 17.4727C11.7271 17.6235 11.9096 17.7183 12.107 17.737C12.3045 17.7556 12.5014 17.6967 12.6562 17.5727C12.8109 17.4487 12.9114 17.2693 12.9362 17.0726C12.961 16.8758 12.9083 16.6771 12.7892 16.5185L10.7072 13.9202H13.6995C14.3069 13.9202 14.8894 13.679 15.3188 13.2495C15.7483 12.82 15.9896 12.2376 15.9896 11.6302V3.99674C16.3945 3.99674 16.7828 3.8359 17.0691 3.54959C17.3554 3.26328 17.5163 2.87496 17.5163 2.47005C17.5163 2.06515 17.3554 1.67683 17.0691 1.39052C16.7828 1.10421 16.3945 0.943359 15.9896 0.943359ZM14.4629 11.6302C14.4629 11.8327 14.3825 12.0268 14.2393 12.17C14.0962 12.3131 13.902 12.3936 13.6995 12.3936H4.53939C4.33694 12.3936 4.14278 12.3131 3.99962 12.17C3.85647 12.0268 3.77604 11.8327 3.77604 11.6302V3.99674H14.4629V11.6302Z" fill="white"/>
</g>
</svg>
