<svg width="14" height="13" viewBox="0 0 14 13" fill="none" xmlns="http://www.w3.org/2000/svg">
<path d="M12.8368 7.27596C12.9668 7.21077 13.0762 7.11068 13.1526 6.98689C13.2291 6.8631 13.2695 6.72049 13.2695 6.57501C13.2695 6.42952 13.2291 6.28691 13.1526 6.16312C13.0762 6.03933 12.9668 5.93924 12.8368 5.87405L1.8599 0.385611C1.72379 0.31751 1.57081 0.290492 1.41961 0.307852C1.26842 0.325212 1.12554 0.386201 1.00841 0.483377C0.891287 0.580553 0.804975 0.709717 0.760003 0.855111C0.715032 1.00051 0.713345 1.15585 0.755153 1.30218L1.87558 5.2225C1.92244 5.38635 2.02142 5.53047 2.15752 5.63303C2.29362 5.7356 2.45943 5.79104 2.62985 5.79094L6.2138 5.79094C6.42175 5.79094 6.62118 5.87355 6.76822 6.02059C6.91526 6.16763 6.99786 6.36706 6.99786 6.57501C6.99786 6.78295 6.91526 6.98238 6.76822 7.12942C6.62118 7.27646 6.42175 7.35907 6.2138 7.35907L2.62985 7.35907C2.45943 7.35897 2.29362 7.41441 2.15752 7.51698C2.02142 7.61954 1.92244 7.76366 1.87558 7.92751L0.755936 11.8478C0.714046 11.9941 0.715631 12.1494 0.760496 12.2948C0.805361 12.4402 0.891568 12.5695 1.0086 12.6667C1.12564 12.764 1.26844 12.8251 1.41961 12.8425C1.57077 12.86 1.72375 12.8331 1.8599 12.7652L12.8368 7.27674L12.8368 7.27596Z" fill="#3FFF00"/>
</svg>
