<svg width="32" height="32" viewBox="0 0 32 32" fill="none" xmlns="http://www.w3.org/2000/svg">
<rect width="31.5352" height="31.5352" rx="15.7676" fill="#2F2F2F"/>
<path d="M13.4477 15.5967L19.2443 12.9214C18.567 12.2855 18.1357 11.4008 18.0896 10.4102L12.293 13.0855C12.9712 13.7195 13.4016 14.6051 13.4477 15.5967Z" fill="#3FFF00"/>
<path d="M19.2443 18.6128L13.4477 15.9375C13.4016 16.9282 12.9703 17.8138 12.293 18.4497L18.0896 21.125C18.1357 20.1334 18.5661 19.2478 19.2443 18.6128Z" fill="#3FFF00"/>
<path opacity="0.35" d="M9.77806 12.0801C7.74232 12.0801 6.0918 13.7306 6.0918 15.7663C6.0918 17.8021 7.74232 19.4526 9.77806 19.4526C11.8138 19.4526 13.4643 17.8021 13.4643 15.7663C13.4643 13.7306 11.8138 12.0801 9.77806 12.0801Z" fill="#3FFF00"/>
<path opacity="0.35" d="M21.7585 6.55078C19.7228 6.55078 18.0723 8.20131 18.0723 10.237C18.0723 12.2728 19.7228 13.9233 21.7585 13.9233C23.7943 13.9233 25.4448 12.2728 25.4448 10.237C25.4448 8.20131 23.7943 6.55078 21.7585 6.55078Z" fill="#3FFF00"/>
<path opacity="0.35" d="M21.7585 17.6094C19.7228 17.6094 18.0723 19.2599 18.0723 21.2956C18.0723 23.3314 19.7228 24.9819 21.7585 24.9819C23.7943 24.9819 25.4448 23.3314 25.4448 21.2956C25.4448 19.2599 23.7943 17.6094 21.7585 17.6094Z" fill="#3FFF00"/>
</svg>
