<svg width="41" height="41" viewBox="0 0 41 41" fill="none" xmlns="http://www.w3.org/2000/svg">
<rect x="0.742188" y="0.0683594" width="40" height="40" rx="20" fill="#2F2F2F"/>
<path d="M17.7967 19.8522L25.1493 16.4588C24.2902 15.6522 23.7431 14.53 23.6846 13.2734L16.332 16.6669C17.1924 17.4711 17.7383 18.5944 17.7967 19.8522Z" fill="#5F6866"/>
<path d="M25.1493 23.6786L17.7967 20.2852C17.7383 21.5418 17.1912 22.6651 16.332 23.4717L23.6846 26.8651C23.7431 25.6073 24.289 24.484 25.1493 23.6786Z" fill="#5F6866"/>
<path d="M13.1425 15.3926C10.5604 15.3926 8.4668 17.4861 8.4668 20.0683C8.4668 22.6505 10.5604 24.7441 13.1425 24.7441C15.7247 24.7441 17.8183 22.6505 17.8183 20.0683C17.8183 17.4861 15.7247 15.3926 13.1425 15.3926Z" fill="white"/>
<path d="M28.3398 8.37891C25.7576 8.37891 23.6641 10.4725 23.6641 13.0547C23.6641 15.6368 25.7576 17.7304 28.3398 17.7304C30.922 17.7304 33.0156 15.6368 33.0156 13.0547C33.0156 10.4725 30.922 8.37891 28.3398 8.37891Z" fill="white"/>
<path d="M28.3398 22.4062C25.7576 22.4062 23.6641 24.4998 23.6641 27.082C23.6641 29.6642 25.7576 31.7577 28.3398 31.7577C30.922 31.7577 33.0156 29.6642 33.0156 27.082C33.0156 24.4998 30.922 22.4062 28.3398 22.4062Z" fill="white"/>
</svg>
