<svg width="50" height="48" viewBox="0 0 50 48" fill="none" xmlns="http://www.w3.org/2000/svg">
<path opacity="0.35" d="M33.6555 36.1591C37.2326 33.594 39.5694 29.4258 39.5694 24.7034C39.5694 16.9038 33.2136 10.5801 25.3745 10.5801C17.5354 10.5801 11.1797 16.9038 11.1797 24.7034C11.1797 29.4258 13.5165 33.594 17.0936 36.1591L18.2345 40.592H32.5145L33.6555 36.1591Z" fill="#3FFF00"/>
<path d="M31.4787 43.7747L32.2671 40.5918H18.0723L18.8589 43.7747C19.4586 46.1965 21.5681 47.892 23.9844 47.892H26.3532C28.7713 47.892 30.8808 46.1965 31.4787 43.7747Z" fill="#3FFF00"/>
<path d="M5.54116 23.0823C6.16951 23.083 6.77389 23.3236 7.2308 23.7549C7.68771 24.1863 7.96266 24.7758 7.99949 25.4031C8.03631 26.0304 7.83223 26.648 7.42893 27.1299C7.02563 27.6117 6.45356 27.9214 5.8296 27.9956L5.54116 28.0129H3.07585C2.4475 28.0122 1.84312 27.7716 1.38621 27.3402C0.929303 26.9089 0.654346 26.3193 0.617522 25.692C0.580697 25.0648 0.784784 24.4471 1.18808 23.9653C1.59138 23.4834 2.16345 23.1737 2.78741 23.0995L3.07585 23.0823H5.54116ZM25.2636 0.894531C25.8674 0.894611 26.4502 1.1163 26.9015 1.51755C27.3527 1.9188 27.641 2.4717 27.7116 3.07139L27.7289 3.35984V5.82514C27.7282 6.45349 27.4876 7.05787 27.0562 7.51478C26.6249 7.97169 26.0353 8.24665 25.4081 8.28347C24.7808 8.32029 24.1631 8.11621 23.6813 7.71291C23.1994 7.30961 22.8898 6.73753 22.8155 6.11358L22.7983 5.82514V3.35984C22.7983 2.706 23.058 2.07893 23.5203 1.6166C23.9827 1.15427 24.6097 0.894531 25.2636 0.894531ZM47.4513 23.0823C48.0797 23.083 48.684 23.3236 49.1409 23.7549C49.5979 24.1863 49.8728 24.7758 49.9096 25.4031C49.9465 26.0304 49.7424 26.648 49.3391 27.1299C48.9358 27.6117 48.3637 27.9214 47.7398 27.9956L47.4513 28.0129H44.986C44.3577 28.0122 43.7533 27.7716 43.2964 27.3402C42.8395 26.9089 42.5645 26.3193 42.5277 25.692C42.4909 25.0648 42.6949 24.4471 43.0982 23.9653C43.5015 23.4834 44.0736 23.1737 44.6976 23.0995L44.986 23.0823H47.4513ZM7.74267 8.02666C8.16718 7.60219 8.73198 7.3472 9.33111 7.30953C9.93025 7.27185 10.5225 7.45408 10.9969 7.82203L11.2286 8.02666L12.9543 9.75237C13.3965 10.196 13.6532 10.7913 13.6723 11.4174C13.6914 12.0435 13.4715 12.6533 13.0573 13.1231C12.643 13.5929 12.0655 13.8874 11.4419 13.9468C10.8184 14.0062 10.1956 13.8261 9.70012 13.4429L9.46838 13.2383L7.74267 11.5126C7.2805 11.0503 7.02086 10.4233 7.02086 9.76962C7.02086 9.11592 7.2805 8.48897 7.74267 8.02666ZM39.2986 8.02666C39.7422 7.58451 40.3375 7.3278 40.9636 7.30869C41.5896 7.28957 42.1995 7.50947 42.6693 7.92373C43.1391 8.33798 43.4336 8.91552 43.493 9.53906C43.5524 10.1626 43.3722 10.7854 42.9891 11.2809L42.7845 11.5126L41.0588 13.2383C40.6151 13.6805 40.0198 13.9372 39.3938 13.9563C38.7677 13.9754 38.1578 13.7555 37.688 13.3412C37.2182 12.927 36.9237 12.3494 36.8643 11.7259C36.8049 11.1024 36.9851 10.4796 37.3682 9.98411L37.5728 9.75237L39.2986 8.02666Z" fill="#3FFF00"/>
</svg>
