<svg width="41" height="41" viewBox="0 0 41 41" fill="none" xmlns="http://www.w3.org/2000/svg">
<rect x="0.332031" y="0.0683594" width="40.1096" height="40.1096" rx="20.0548" fill="#2F2F2F"/>
<path opacity="0.35" d="M20.3863 19.5676C22.8476 19.5676 24.8429 17.5723 24.8429 15.1109C24.8429 12.6496 22.8476 10.6543 20.3863 10.6543C17.925 10.6543 15.9297 12.6496 15.9297 15.1109C15.9297 17.5723 17.925 19.5676 20.3863 19.5676Z" fill="white"/>
<path opacity="0.35" d="M12.0295 21.7954C13.5679 21.7954 14.8149 20.5483 14.8149 19.01C14.8149 17.4717 13.5679 16.2246 12.0295 16.2246C10.4912 16.2246 9.24414 17.4717 9.24414 19.01C9.24414 20.5483 10.4912 21.7954 12.0295 21.7954Z" fill="white"/>
<path opacity="0.35" d="M28.7424 21.7954C30.2808 21.7954 31.5278 20.5483 31.5278 19.01C31.5278 17.4717 30.2808 16.2246 28.7424 16.2246C27.2041 16.2246 25.957 17.4717 25.957 19.01C25.957 20.5483 27.2041 21.7954 28.7424 21.7954Z" fill="white"/>
<path d="M23.7286 29.594H17.0436C15.1975 29.594 13.7012 27.8481 13.7012 25.6945C13.7012 23.5408 15.1975 21.7949 17.0436 21.7949H23.7286C25.5747 21.7949 27.0711 23.5408 27.0711 25.6945C27.0711 27.8481 25.5747 29.594 23.7286 29.594Z" fill="white"/>
<path opacity="0.35" d="M31.0268 24.0234H9.6584C8.19886 24.0234 7.01562 25.2067 7.01562 26.6662V26.9526C7.01562 28.411 8.19886 29.5942 9.6584 29.5942H31.0268C32.5332 29.5942 33.7554 28.372 33.7554 26.8645V26.752C33.7554 25.2457 32.5332 24.0234 31.0268 24.0234Z" fill="white"/>
</svg>
