<svg width="32" height="32" viewBox="0 0 32 32" fill="none" xmlns="http://www.w3.org/2000/svg">
<rect width="31.2676" height="31.2676" rx="15.6338" fill="#2F2F2F"/>
<path opacity="0.35" d="M22.4782 23.3352H14.7773V9.64489C14.7773 8.6994 15.5431 7.93359 16.4886 7.93359H21.6225C22.568 7.93359 23.3338 8.6994 23.3338 9.64489V22.4796C23.3338 22.9519 22.9505 23.3352 22.4782 23.3352Z" fill="#3FFF00"/>
<path d="M21.6214 11.3558H19.9102V9.64453H21.6214V11.3558Z" fill="#3FFF00"/>
<path d="M18.2015 11.3558H16.4902V9.64453H18.2015V11.3558Z" fill="#3FFF00"/>
<path d="M21.6214 14.7777H19.9102V13.0664H21.6214V14.7777Z" fill="#3FFF00"/>
<path d="M18.2015 14.7777H16.4902V13.0664H18.2015V14.7777Z" fill="#3FFF00"/>
<path d="M21.6214 18.2015H19.9102V16.4902H21.6214V18.2015Z" fill="#3FFF00"/>
<path d="M18.2015 18.2015H16.4902V16.4902H18.2015V18.2015Z" fill="#3FFF00"/>
<path d="M21.6214 21.6254H19.9102V19.9141H21.6214V21.6254Z" fill="#3FFF00"/>
<path d="M18.2015 21.6254H16.4902V19.9141H18.2015V21.6254Z" fill="#3FFF00"/>
<path d="M12.5217 16.9692C14.47 16.9692 16.0493 15.3899 16.0493 13.4416C16.0493 11.4934 14.47 9.91406 12.5217 9.91406C10.5735 9.91406 8.99414 11.4934 8.99414 13.4416C8.99414 15.3899 10.5735 16.9692 12.5217 16.9692Z" fill="#3FFF00"/>
<path d="M16.7527 19.0859H8.28647C7.11743 19.0859 6.16992 20.0334 6.16992 21.2025C6.16992 22.3715 7.11743 23.319 8.28647 23.319H16.7527C17.9217 23.319 18.8692 22.3715 18.8692 21.2025C18.8692 20.0334 17.9217 19.0859 16.7527 19.0859Z" fill="#3FFF00"/>
</svg>
