<svg width="32" height="32" viewBox="0 0 32 32" fill="none" xmlns="http://www.w3.org/2000/svg">
<rect width="31.5352" height="31.5352" rx="15.7676" fill="#2F2F2F"/>
<path opacity="0.35" d="M15.7676 15.3301C17.7027 15.3301 19.2715 13.7613 19.2715 11.8262C19.2715 9.89102 17.7027 8.32227 15.7676 8.32227C13.8324 8.32227 12.2637 9.89102 12.2637 11.8262C12.2637 13.7613 13.8324 15.3301 15.7676 15.3301Z" fill="#3FFF00"/>
<path opacity="0.35" d="M9.19776 17.083C10.4072 17.083 11.3877 16.1025 11.3877 14.8931C11.3877 13.6836 10.4072 12.7031 9.19776 12.7031C7.98828 12.7031 7.00781 13.6836 7.00781 14.8931C7.00781 16.1025 7.98828 17.083 9.19776 17.083Z" fill="#3FFF00"/>
<path opacity="0.35" d="M22.3384 17.083C23.5479 17.083 24.5283 16.1025 24.5283 14.8931C24.5283 13.6836 23.5479 12.7031 22.3384 12.7031C21.1289 12.7031 20.1484 13.6836 20.1484 14.8931C20.1484 16.1025 21.1289 17.083 22.3384 17.083Z" fill="#3FFF00"/>
<path d="M18.3955 23.2139H13.1397C11.6882 23.2139 10.5117 21.8412 10.5117 20.148C10.5117 18.4547 11.6882 17.082 13.1397 17.082H18.3955C19.847 17.082 21.0235 18.4547 21.0235 20.148C21.0235 21.8412 19.847 23.2139 18.3955 23.2139Z" fill="#3FFF00"/>
<path opacity="0.35" d="M24.1341 18.834H7.33368C6.18615 18.834 5.25586 19.7643 5.25586 20.9118V21.1369C5.25586 22.2836 6.18615 23.2139 7.33368 23.2139H24.1341C25.3184 23.2139 26.2793 22.2529 26.2793 21.0677V20.9793C26.2793 19.7949 25.3184 18.834 24.1341 18.834Z" fill="#3FFF00"/>
</svg>
