<svg width="41" height="41" viewBox="0 0 41 41" fill="none" xmlns="http://www.w3.org/2000/svg">
<rect x="0.140625" y="0.433594" width="40.2676" height="40.2676" rx="20.1338" fill="#2F2F2F"/>
<path opacity="0.35" d="M29.0873 30.4852H19.1699V12.8543C19.1699 11.6366 20.1562 10.6504 21.3738 10.6504H27.9854C29.203 10.6504 30.1893 11.6366 30.1893 12.8543V29.3833C30.1893 29.9915 29.6956 30.4852 29.0873 30.4852Z" fill="#5F6866"/>
<path d="M27.9851 15.0574H25.7812V12.8535H27.9851V15.0574Z" fill="#5F6866"/>
<path d="M23.5789 15.0574H21.375V12.8535H23.5789V15.0574Z" fill="#5F6866"/>
<path d="M27.9851 19.4656H25.7812V17.2617H27.9851V19.4656Z" fill="#5F6866"/>
<path d="M23.5789 19.4656H21.375V17.2617H23.5789V19.4656Z" fill="#5F6866"/>
<path d="M27.9851 23.8738H25.7812V21.6699H27.9851V23.8738Z" fill="#5F6866"/>
<path d="M23.5789 23.8738H21.375V21.6699H23.5789V23.8738Z" fill="#5F6866"/>
<path d="M27.9851 28.282H25.7812V26.0781H27.9851V28.282Z" fill="#5F6866"/>
<path d="M23.5789 28.282H21.375V26.0781H23.5789V28.282Z" fill="#5F6866"/>
<path d="M16.2676 22.289C18.7766 22.289 20.8105 20.2551 20.8105 17.7461C20.8105 15.2371 18.7766 13.2031 16.2676 13.2031C13.7586 13.2031 11.7246 15.2371 11.7246 17.7461C11.7246 20.2551 13.7586 22.289 16.2676 22.289Z" fill="white"/>
<path d="M21.7168 25.0156H10.8137C9.30813 25.0156 8.08789 26.2359 8.08789 27.7414C8.08789 29.2469 9.30813 30.4672 10.8137 30.4672H21.7168C23.2223 30.4672 24.4425 29.2469 24.4425 27.7414C24.4425 26.2359 23.2223 25.0156 21.7168 25.0156Z" fill="white"/>
</svg>
