<svg width="32" height="32" viewBox="0 0 32 32" fill="none" xmlns="http://www.w3.org/2000/svg">
<rect width="31.2238" height="31.2238" rx="15.6119" fill="#2F2F2F"/>
<path opacity="0.35" d="M20.7396 21.6596H10.6057C9.20642 21.6596 8.07227 20.5254 8.07227 19.1261V8.99219H20.7396C22.139 8.99219 23.2731 10.1263 23.2731 11.5257V19.1261C23.2731 20.5254 22.139 21.6596 20.7396 21.6596Z" fill="#3FFF00"/>
<path d="M20.3175 16.594C21.0171 16.594 21.5843 16.0269 21.5843 15.3273C21.5843 14.6277 21.0171 14.0605 20.3175 14.0605C19.6179 14.0605 19.0508 14.6277 19.0508 15.3273C19.0508 16.0269 19.6179 16.594 20.3175 16.594Z" fill="#3FFF00"/>
<path d="M8.07227 8.99246C8.07227 7.59314 9.20642 6.45898 10.6057 6.45898H18.2062C19.6055 6.45898 20.7396 7.59314 20.7396 8.99246H8.07227Z" fill="#3FFF00"/>
<path d="M15.3348 24.7234H9.05412C8.01341 24.7234 7.16992 23.8799 7.16992 22.8392V14.0463C7.16992 13.0056 8.01341 12.1621 9.05412 12.1621H15.3348C16.3755 12.1621 17.219 13.0056 17.219 14.0463V22.8392C17.219 23.8799 16.3755 24.7234 15.3348 24.7234Z" fill="#3FFF00"/>
<path d="M14.7073 14.0449H9.68275C9.33606 14.0449 9.05469 14.3263 9.05469 14.673V15.3011C9.05469 15.6477 9.33606 15.9291 9.68275 15.9291H14.7073C15.054 15.9291 15.3353 15.6477 15.3353 15.3011V14.673C15.3353 14.3263 15.054 14.0449 14.7073 14.0449Z" fill="#35781F"/>
<path d="M12.1945 18.4436C12.5413 18.4436 12.8225 18.1624 12.8225 17.8156C12.8225 17.4687 12.5413 17.1875 12.1945 17.1875C11.8476 17.1875 11.5664 17.4687 11.5664 17.8156C11.5664 18.1624 11.8476 18.4436 12.1945 18.4436Z" fill="#35781F"/>
<path d="M14.7062 18.4436C15.0531 18.4436 15.3343 18.1624 15.3343 17.8156C15.3343 17.4687 15.0531 17.1875 14.7062 17.1875C14.3593 17.1875 14.0781 17.4687 14.0781 17.8156C14.0781 18.1624 14.3593 18.4436 14.7062 18.4436Z" fill="#35781F"/>
<path d="M9.68275 18.4436C10.0296 18.4436 10.3108 18.1624 10.3108 17.8156C10.3108 17.4687 10.0296 17.1875 9.68275 17.1875C9.33588 17.1875 9.05469 17.4687 9.05469 17.8156C9.05469 18.1624 9.33588 18.4436 9.68275 18.4436Z" fill="#35781F"/>
<path d="M12.1945 20.9553C12.5413 20.9553 12.8225 20.6742 12.8225 20.3273C12.8225 19.9804 12.5413 19.6992 12.1945 19.6992C11.8476 19.6992 11.5664 19.9804 11.5664 20.3273C11.5664 20.6742 11.8476 20.9553 12.1945 20.9553Z" fill="#35781F"/>
<path d="M12.1945 23.4671C12.5413 23.4671 12.8225 23.1859 12.8225 22.839C12.8225 22.4921 12.5413 22.2109 12.1945 22.2109C11.8476 22.2109 11.5664 22.4921 11.5664 22.839C11.5664 23.1859 11.8476 23.4671 12.1945 23.4671Z" fill="#35781F"/>
<path d="M9.68275 20.9553C10.0296 20.9553 10.3108 20.6742 10.3108 20.3273C10.3108 19.9804 10.0296 19.6992 9.68275 19.6992C9.33588 19.6992 9.05469 19.9804 9.05469 20.3273C9.05469 20.6742 9.33588 20.9553 9.68275 20.9553Z" fill="#35781F"/>
<path d="M9.68275 23.4671C10.0296 23.4671 10.3108 23.1859 10.3108 22.839C10.3108 22.4921 10.0296 22.2109 9.68275 22.2109C9.33588 22.2109 9.05469 22.4921 9.05469 22.839C9.05469 23.1859 9.33588 23.4671 9.68275 23.4671Z" fill="#35781F"/>
<path d="M15.3343 22.8395C15.3343 22.7227 15.3343 20.4441 15.3343 20.3273C15.3343 19.9806 15.0529 19.6992 14.7062 19.6992C14.3595 19.6992 14.0781 19.9806 14.0781 20.3273C14.0781 20.4441 14.0781 22.7227 14.0781 22.8395C14.0781 23.1862 14.3595 23.4676 14.7062 23.4676C15.0529 23.4676 15.3343 23.1862 15.3343 22.8395Z" fill="#35781F"/>
</svg>
