<svg width="41" height="41" viewBox="0 0 41 41" fill="none" xmlns="http://www.w3.org/2000/svg">
<rect x="0.529297" y="0.03125" width="40.2922" height="40.2922" rx="20.1461" fill="#2F2F2F"/>
<path opacity="0.35" d="M27.2937 27.9831H14.2165C12.4108 27.9831 10.9473 26.5196 10.9473 24.7139V11.6367H27.2937C29.0994 11.6367 30.563 13.1003 30.563 14.906V24.7139C30.563 26.5196 29.0994 27.9831 27.2937 27.9831Z" fill="#5F6866"/>
<path d="M26.7499 21.4451C27.6527 21.4451 28.3845 20.7132 28.3845 19.8104C28.3845 18.9076 27.6527 18.1758 26.7499 18.1758C25.8471 18.1758 25.1152 18.9076 25.1152 19.8104C25.1152 20.7132 25.8471 21.4451 26.7499 21.4451Z" fill="#5F6866"/>
<path d="M10.9473 11.6365C10.9473 9.83074 12.4108 8.36719 14.2165 8.36719H24.0244C25.8301 8.36719 27.2937 9.83074 27.2937 11.6365H10.9473Z" fill="white"/>
<path d="M20.3174 31.9361H12.2127C10.8697 31.9361 9.78125 30.8476 9.78125 29.5047V18.158C9.78125 16.815 10.8697 15.7266 12.2127 15.7266H20.3174C21.6604 15.7266 22.7489 16.815 22.7489 18.158V29.5047C22.7489 30.8476 21.6604 31.9361 20.3174 31.9361Z" fill="#5F6866"/>
<path d="M19.5072 18.1582H13.0234C12.576 18.1582 12.2129 18.5213 12.2129 18.9687V19.7792C12.2129 20.2265 12.576 20.5896 13.0234 20.5896H19.5072C19.9546 20.5896 20.3176 20.2265 20.3176 19.7792V18.9687C20.3176 18.5213 19.9546 18.1582 19.5072 18.1582Z" fill="white"/>
<path d="M16.2656 23.8319C16.7132 23.8319 17.076 23.469 17.076 23.0214C17.076 22.5738 16.7132 22.2109 16.2656 22.2109C15.8179 22.2109 15.4551 22.5738 15.4551 23.0214C15.4551 23.469 15.8179 23.8319 16.2656 23.8319Z" fill="white"/>
<path d="M19.5058 23.8319C19.9534 23.8319 20.3163 23.469 20.3163 23.0214C20.3163 22.5738 19.9534 22.2109 19.5058 22.2109C19.0582 22.2109 18.6953 22.5738 18.6953 23.0214C18.6953 23.469 19.0582 23.8319 19.5058 23.8319Z" fill="white"/>
<path d="M13.0234 23.8319C13.471 23.8319 13.8338 23.469 13.8338 23.0214C13.8338 22.5738 13.471 22.2109 13.0234 22.2109C12.5758 22.2109 12.2129 22.5738 12.2129 23.0214C12.2129 23.469 12.5758 23.8319 13.0234 23.8319Z" fill="white"/>
<path d="M16.2656 27.0741C16.7132 27.0741 17.076 26.7112 17.076 26.2636C17.076 25.816 16.7132 25.4531 16.2656 25.4531C15.8179 25.4531 15.4551 25.816 15.4551 26.2636C15.4551 26.7112 15.8179 27.0741 16.2656 27.0741Z" fill="white"/>
<path d="M16.2656 30.3143C16.7132 30.3143 17.076 29.9514 17.076 29.5038C17.076 29.0562 16.7132 28.6934 16.2656 28.6934C15.8179 28.6934 15.4551 29.0562 15.4551 29.5038C15.4551 29.9514 15.8179 30.3143 16.2656 30.3143Z" fill="white"/>
<path d="M13.0234 27.0741C13.471 27.0741 13.8338 26.7112 13.8338 26.2636C13.8338 25.816 13.471 25.4531 13.0234 25.4531C12.5758 25.4531 12.2129 25.816 12.2129 26.2636C12.2129 26.7112 12.5758 27.0741 13.0234 27.0741Z" fill="white"/>
<path d="M13.0234 30.3143C13.471 30.3143 13.8338 29.9514 13.8338 29.5038C13.8338 29.0562 13.471 28.6934 13.0234 28.6934C12.5758 28.6934 12.2129 29.0562 12.2129 29.5038C12.2129 29.9514 12.5758 30.3143 13.0234 30.3143Z" fill="white"/>
<path d="M20.3163 29.5055C20.3163 29.3548 20.3163 26.4143 20.3163 26.2636C20.3163 25.8162 19.9532 25.4531 19.5058 25.4531C19.0584 25.4531 18.6953 25.8162 18.6953 26.2636C18.6953 26.4143 18.6953 29.3548 18.6953 29.5055C18.6953 29.9529 19.0584 30.316 19.5058 30.316C19.9532 30.316 20.3163 29.9529 20.3163 29.5055Z" fill="white"/>
</svg>
