<svg width="41" height="41" viewBox="0 0 41 41" fill="none" xmlns="http://www.w3.org/2000/svg">
<rect x="0.384766" y="0.453125" width="40.4487" height="40.4487" rx="20.2244" fill="#2F2F2F"/>
<path opacity="0.35" d="M27.8885 31.098H14.3949C12.5316 31.098 11.0215 29.5879 11.0215 27.7246V15.3555H31.2619V27.7246C31.2619 29.5879 29.7517 31.098 27.8885 31.098Z" fill="#5F6866"/>
<path d="M27.888 19.8535C27.6788 19.8535 23.5992 19.8535 23.3901 19.8535C22.7694 19.8535 22.2656 20.3573 22.2656 20.978C22.2656 21.5987 22.7694 22.1025 23.3901 22.1025C23.5992 22.1025 27.6788 22.1025 27.888 22.1025C28.5087 22.1025 29.0124 21.5987 29.0124 20.978C29.0124 20.3573 28.5087 19.8535 27.888 19.8535Z" fill="#F9F9F9"/>
<path d="M27.888 24.3516C27.6788 24.3516 23.5992 24.3516 23.3901 24.3516C22.7694 24.3516 22.2656 24.8553 22.2656 25.476C22.2656 26.0967 22.7694 26.6005 23.3901 26.6005C23.5992 26.6005 27.6788 26.6005 27.888 26.6005C28.5087 26.6005 29.0124 26.0967 29.0124 25.476C29.0124 24.8553 28.5087 24.3516 27.888 24.3516Z" fill="#F9F9F9"/>
<path d="M31.2619 15.3553H11.0215V14.2308C11.0215 12.3676 12.5316 10.8574 14.3949 10.8574H27.8885C29.7517 10.8574 31.2619 12.3676 31.2619 14.2308V15.3553Z" fill="#5F6866"/>
<path d="M18.8919 26.6003H14.394C13.7733 26.6003 13.2695 26.0966 13.2695 25.4759V20.978C13.2695 20.3573 13.7733 19.8535 14.394 19.8535H18.8919C19.5126 19.8535 20.0163 20.3573 20.0163 20.978V25.4759C20.0163 26.0966 19.5126 26.6003 18.8919 26.6003Z" fill="#F9F9F9"/>
</svg>
