<svg width="31" height="31" viewBox="0 0 31 31" fill="none" xmlns="http://www.w3.org/2000/svg">
<rect width="30.506" height="30.506" rx="15.253" fill="#2F2F2F"/>
<path opacity="0.35" d="M21.4991 24.6223H9.00919C7.28454 24.6223 5.88672 23.2245 5.88672 21.4998V10.0508H24.6215V21.4998C24.6215 23.2245 23.2237 24.6223 21.4991 24.6223Z" fill="#3FFF00"/>
<path d="M21.499 14.2129C21.3054 14.2129 17.5293 14.2129 17.3357 14.2129C16.7612 14.2129 16.2949 14.6792 16.2949 15.2537C16.2949 15.8282 16.7612 16.2945 17.3357 16.2945C17.5293 16.2945 21.3054 16.2945 21.499 16.2945C22.0736 16.2945 22.5399 15.8282 22.5399 15.2537C22.5399 14.6792 22.0736 14.2129 21.499 14.2129Z" fill="#3FFF00"/>
<path d="M21.499 18.377C21.3054 18.377 17.5293 18.377 17.3357 18.377C16.7612 18.377 16.2949 18.8432 16.2949 19.4178C16.2949 19.9923 16.7612 20.4586 17.3357 20.4586C17.5293 20.4586 21.3054 20.4586 21.499 20.4586C22.0736 20.4586 22.5399 19.9923 22.5399 19.4178C22.5399 18.8432 22.0736 18.377 21.499 18.377Z" fill="#3FFF00"/>
<path d="M24.6215 10.05H5.88672V9.00919C5.88672 7.28454 7.28454 5.88672 9.00919 5.88672H21.4991C23.2237 5.88672 24.6215 7.28454 24.6215 9.00919V10.05Z" fill="#3FFF00"/>
<path d="M13.1729 20.4578H9.00957C8.43504 20.4578 7.96875 19.9915 7.96875 19.417V15.2537C7.96875 14.6792 8.43504 14.2129 9.00957 14.2129H13.1729C13.7474 14.2129 14.2137 14.6792 14.2137 15.2537V19.417C14.2137 19.9915 13.7474 20.4578 13.1729 20.4578Z" fill="#3FFF00"/>
</svg>
