<svg width="19" height="18" viewBox="0 0 19 18" fill="none" xmlns="http://www.w3.org/2000/svg">
<path d="M12.8555 7.37435C12.8555 7.22586 12.9145 7.08344 13.0195 6.97844C13.1245 6.87344 13.2669 6.81445 13.4154 6.81445H14.5352C14.6836 6.81445 14.8261 6.87344 14.9311 6.97844C15.0361 7.08344 15.0951 7.22586 15.0951 7.37435V8.49414C15.0951 8.64263 15.0361 8.78505 14.9311 8.89005C14.8261 8.99505 14.6836 9.05404 14.5352 9.05404H13.4154C13.2669 9.05404 13.1245 8.99505 13.0195 8.89005C12.9145 8.78505 12.8555 8.64263 12.8555 8.49414V7.37435Z" fill="#3FFF00"/>
<path d="M9.49609 7.37435C9.49609 7.22586 9.55508 7.08344 9.66008 6.97844C9.76508 6.87344 9.9075 6.81445 10.056 6.81445H11.1758C11.3243 6.81445 11.4667 6.87344 11.5717 6.97844C11.6767 7.08344 11.7357 7.22586 11.7357 7.37435V8.49414C11.7357 8.64263 11.6767 8.78505 11.5717 8.89005C11.4667 8.99505 11.3243 9.05404 11.1758 9.05404H10.056C9.9075 9.05404 9.76508 8.99505 9.66008 8.89005C9.55508 8.78505 9.49609 8.64263 9.49609 8.49414V7.37435Z" fill="#3FFF00"/>
<path d="M4.46224 0.0898438C4.61073 0.0898438 4.75314 0.148833 4.85815 0.253833C4.96315 0.358834 5.02214 0.501246 5.02214 0.64974V1.20964H13.9805V0.64974C13.9805 0.501246 14.0395 0.358834 14.1445 0.253833C14.2495 0.148833 14.3919 0.0898438 14.5404 0.0898438C14.6889 0.0898438 14.8313 0.148833 14.9363 0.253833C15.0413 0.358834 15.1003 0.501246 15.1003 0.64974V1.20964H16.2201C16.814 1.20964 17.3837 1.44559 17.8037 1.86559C18.2237 2.2856 18.4596 2.85524 18.4596 3.44922V15.7669C18.4596 16.3609 18.2237 16.9305 17.8037 17.3505C17.3837 17.7706 16.814 18.0065 16.2201 18.0065H2.78255C2.18858 18.0065 1.61893 17.7706 1.19893 17.3505C0.778924 16.9305 0.542969 16.3609 0.542969 15.7669V3.44922C0.542969 2.85524 0.778924 2.2856 1.19893 1.86559C1.61893 1.44559 2.18858 1.20964 2.78255 1.20964H3.90234V0.64974C3.90234 0.501246 3.96133 0.358834 4.06633 0.253833C4.17133 0.148833 4.31375 0.0898438 4.46224 0.0898438V0.0898438ZM1.66276 4.56901V15.7669C1.66276 16.0639 1.78074 16.3487 1.99074 16.5587C2.20074 16.7687 2.48556 16.8867 2.78255 16.8867H16.2201C16.517 16.8867 16.8019 16.7687 17.0119 16.5587C17.2219 16.3487 17.3398 16.0639 17.3398 15.7669V4.56901H1.66276Z" fill="#3FFF00"/>
</svg>
