<svg width="56" height="57" viewBox="0 0 56 57" fill="none" xmlns="http://www.w3.org/2000/svg">
<rect x="0.580078" y="0.974609" width="55.3008" height="55.3008" rx="12.2891" fill="#2F2F2F"/>
<path d="M24.1578 28.3258L34.3229 23.6343C33.1351 22.5192 32.3787 20.9678 32.2979 19.2305L22.1328 23.9219C23.3222 25.0338 24.077 26.5869 24.1578 28.3258Z" fill="#3FFF00"/>
<path d="M34.3248 33.6153L24.1597 28.9238C24.0789 30.6611 23.3226 32.2142 22.1348 33.3293L32.2999 38.0207C32.3807 36.2818 33.1354 34.7288 34.3248 33.6153Z" fill="#3FFF00"/>
<path opacity="0.35" d="M17.7241 22.1602C14.1542 22.1602 11.2598 25.0546 11.2598 28.6245C11.2598 32.1944 14.1542 35.0888 17.7241 35.0888C21.294 35.0888 24.1884 32.1944 24.1884 28.6245C24.1884 25.0546 21.294 22.1602 17.7241 22.1602Z" fill="#3FFF00"/>
<path opacity="0.35" d="M38.7338 12.4629C35.1639 12.4629 32.2695 15.3573 32.2695 18.9272C32.2695 22.4971 35.1639 25.3915 38.7338 25.3915C42.3038 25.3915 45.1982 22.4971 45.1982 18.9272C45.1982 15.3573 42.3038 12.4629 38.7338 12.4629Z" fill="#3FFF00"/>
<path opacity="0.35" d="M38.7338 31.8574C35.1639 31.8574 32.2695 34.7518 32.2695 38.3217C32.2695 41.8917 35.1639 44.786 38.7338 44.786C42.3038 44.786 45.1982 41.8917 45.1982 38.3217C45.1982 34.7518 42.3038 31.8574 38.7338 31.8574Z" fill="#3FFF00"/>
</svg>
