<svg width="56" height="57" viewBox="0 0 56 57" fill="none" xmlns="http://www.w3.org/2000/svg">
<rect x="0.128906" y="0.974609" width="55.2285" height="55.2285" rx="12.273" fill="#2F2F2F"/>
<path opacity="0.35" d="M40.0056 35.3944L32.3539 27.7267C31.7232 27.0946 30.7014 27.0919 30.0667 27.72L29.8083 27.9757L22.5088 20.6763C22.0722 19.368 21.2487 18.2244 20.1453 17.3968L17.6719 15.5421C16.989 15.0306 16.0342 15.0976 15.4316 15.7015L14.8558 16.2773C14.2519 16.8799 14.1849 17.8347 14.6964 18.5176L16.5511 20.991C17.3787 22.0944 18.5223 22.9179 19.8306 23.3545L27.118 30.6419L26.8863 30.8709C26.2489 31.5016 26.2462 32.5314 26.8796 33.1661L34.55 40.8513C36.0565 42.3578 38.4991 42.3578 40.0069 40.8513C41.5121 39.3448 41.5121 36.9022 40.0056 35.3944Z" fill="#3FFF00"/>
<path d="M15.4874 40.849C16.9993 42.3608 19.4512 42.3608 20.963 40.849L33.1007 28.7368L27.6505 23.2344L15.4874 35.3747C13.9756 36.8852 13.9756 39.3371 15.4874 40.849Z" fill="#3FFF00"/>
<path d="M36.0655 24.0569C34.9554 25.167 33.1127 25.0987 32.0923 23.852C31.2059 22.7674 31.3947 21.1524 32.3856 20.1615L35.4133 17.1337C35.9731 16.574 35.716 15.6018 34.946 15.417C33.8251 15.1492 32.6146 15.1157 31.3585 15.3875C28.2397 16.0651 25.7543 18.6202 25.1973 21.7617C24.2063 27.3458 28.9896 32.1291 34.5737 31.1381C37.7166 30.5811 40.2703 28.0957 40.9465 24.9756C41.2184 23.7195 41.1862 22.5089 40.9171 21.3881C40.7323 20.6181 39.7614 20.361 39.2017 20.9194C37.8585 22.2652 36.3601 23.7623 36.0655 24.0569Z" fill="#3FFF00"/>
</svg>
