<svg width="57" height="56" viewBox="0 0 57 56" fill="none" xmlns="http://www.w3.org/2000/svg">
<rect x="0.921875" y="0.144531" width="55.1309" height="55.1309" rx="12.2513" fill="#2F2F2F"/>
<path opacity="0.35" d="M28.4889 26.9447C31.872 26.9447 34.6146 24.2021 34.6146 20.819C34.6146 17.4359 31.872 14.6934 28.4889 14.6934C25.1058 14.6934 22.3633 17.4359 22.3633 20.819C22.3633 24.2021 25.1058 26.9447 28.4889 26.9447Z" fill="#3FFF00"/>
<path opacity="0.35" d="M17.0024 30.0067C19.1168 30.0067 20.8309 28.2926 20.8309 26.1781C20.8309 24.0637 19.1168 22.3496 17.0024 22.3496C14.8879 22.3496 13.1738 24.0637 13.1738 26.1781C13.1738 28.2926 14.8879 30.0067 17.0024 30.0067Z" fill="#3FFF00"/>
<path opacity="0.35" d="M39.9731 30.0067C42.0875 30.0067 43.8016 28.2926 43.8016 26.1781C43.8016 24.0637 42.0875 22.3496 39.9731 22.3496C37.8586 22.3496 36.1445 24.0637 36.1445 26.1781C36.1445 28.2926 37.8586 30.0067 39.9731 30.0067Z" fill="#3FFF00"/>
<path d="M33.0835 40.7277H23.895C21.3575 40.7277 19.3008 38.328 19.3008 35.3678C19.3008 32.4075 21.3575 30.0078 23.895 30.0078H33.0835C35.621 30.0078 37.6777 32.4075 37.6777 35.3678C37.6777 38.328 35.621 40.7277 33.0835 40.7277Z" fill="#3FFF00"/>
<path opacity="0.35" d="M43.1148 33.0703H13.7438C11.7377 33.0703 10.1113 34.6967 10.1113 36.7028V37.0964C10.1113 39.101 11.7377 40.7274 13.7438 40.7274H43.1148C45.1853 40.7274 46.8652 39.0474 46.8652 36.9754V36.8207C46.8652 34.7503 45.1853 33.0703 43.1148 33.0703Z" fill="#3FFF00"/>
</svg>
