<svg width="56" height="56" viewBox="0 0 56 56" fill="none" xmlns="http://www.w3.org/2000/svg">
<rect x="0.177734" y="0.144531" width="55.1309" height="55.1309" rx="12.2513" fill="#2F2F2F"/>
<path opacity="0.35" d="M36.798 38.3879H18.9049C16.4342 38.3879 14.4316 36.3853 14.4316 33.9146V16.0215H36.798C39.2688 16.0215 41.2713 18.024 41.2713 20.4948V33.9146C41.2713 36.3853 39.2688 38.3879 36.798 38.3879Z" fill="#3FFF00"/>
<path d="M36.053 29.444C37.2883 29.444 38.2897 28.4426 38.2897 27.2073C38.2897 25.9721 37.2883 24.9707 36.053 24.9707C34.8178 24.9707 33.8164 25.9721 33.8164 27.2073C33.8164 28.4426 34.8178 29.444 36.053 29.444Z" fill="#3FFF00"/>
<path d="M14.4316 16.0221C14.4316 13.5514 16.4342 11.5488 18.9049 11.5488H32.3248C34.7955 11.5488 36.798 13.5514 36.798 16.0221H14.4316Z" fill="#3FFF00"/>
<path d="M27.2523 43.7982H16.1628C14.3253 43.7982 12.8359 42.3089 12.8359 40.4714V24.946C12.8359 23.1085 14.3253 21.6191 16.1628 21.6191H27.2523C29.0899 21.6191 30.5792 23.1085 30.5792 24.946V40.4714C30.5792 42.3089 29.0899 43.7982 27.2523 43.7982Z" fill="#3FFF00"/>
<path d="M26.1446 24.9434H17.273C16.6609 24.9434 16.1641 25.4402 16.1641 26.0523V27.1613C16.1641 27.7734 16.6609 28.2702 17.273 28.2702H26.1446C26.7568 28.2702 27.2536 27.7734 27.2536 27.1613V26.0523C27.2536 25.4402 26.7568 24.9434 26.1446 24.9434Z" fill="#35781F"/>
<path d="M21.7086 32.7101C22.321 32.7101 22.8175 32.2136 22.8175 31.6011C22.8175 30.9887 22.321 30.4922 21.7086 30.4922C21.0961 30.4922 20.5996 30.9887 20.5996 31.6011C20.5996 32.2136 21.0961 32.7101 21.7086 32.7101Z" fill="#35781F"/>
<path d="M26.1422 32.7101C26.7546 32.7101 27.2511 32.2136 27.2511 31.6011C27.2511 30.9887 26.7546 30.4922 26.1422 30.4922C25.5297 30.4922 25.0332 30.9887 25.0332 31.6011C25.0332 32.2136 25.5297 32.7101 26.1422 32.7101Z" fill="#35781F"/>
<path d="M17.273 32.7101C17.8855 32.7101 18.382 32.2136 18.382 31.6011C18.382 30.9887 17.8855 30.4922 17.273 30.4922C16.6606 30.4922 16.1641 30.9887 16.1641 31.6011C16.1641 32.2136 16.6606 32.7101 17.273 32.7101Z" fill="#35781F"/>
<path d="M21.7086 37.1456C22.321 37.1456 22.8175 36.6491 22.8175 36.0367C22.8175 35.4242 22.321 34.9277 21.7086 34.9277C21.0961 34.9277 20.5996 35.4242 20.5996 36.0367C20.5996 36.6491 21.0961 37.1456 21.7086 37.1456Z" fill="#35781F"/>
<path d="M21.7086 41.5792C22.321 41.5792 22.8175 41.0827 22.8175 40.4703C22.8175 39.8578 22.321 39.3613 21.7086 39.3613C21.0961 39.3613 20.5996 39.8578 20.5996 40.4703C20.5996 41.0827 21.0961 41.5792 21.7086 41.5792Z" fill="#35781F"/>
<path d="M17.273 37.1456C17.8855 37.1456 18.382 36.6491 18.382 36.0367C18.382 35.4242 17.8855 34.9277 17.273 34.9277C16.6606 34.9277 16.1641 35.4242 16.1641 36.0367C16.1641 36.6491 16.6606 37.1456 17.273 37.1456Z" fill="#35781F"/>
<path d="M17.273 41.5792C17.8855 41.5792 18.382 41.0827 18.382 40.4703C18.382 39.8578 17.8855 39.3613 17.273 39.3613C16.6606 39.3613 16.1641 39.8578 16.1641 40.4703C16.1641 41.0827 16.6606 41.5792 17.273 41.5792Z" fill="#35781F"/>
<path d="M27.2511 40.4725C27.2511 40.2662 27.2511 36.243 27.2511 36.0367C27.2511 35.4245 26.7543 34.9277 26.1422 34.9277C25.53 34.9277 25.0332 35.4245 25.0332 36.0367C25.0332 36.243 25.0332 40.2662 25.0332 40.4725C25.0332 41.0846 25.53 41.5815 26.1422 41.5815C26.7543 41.5815 27.2511 41.0846 27.2511 40.4725Z" fill="#35781F"/>
</svg>
