<svg width="56" height="56" viewBox="0 0 56 56" fill="none" xmlns="http://www.w3.org/2000/svg">
<rect x="0.720703" y="0.144531" width="55.0215" height="55.0215" rx="12.227" fill="#2F2F2F"/>
<path opacity="0.35" d="M39.4948 44.5511H16.9677C13.8571 44.5511 11.3359 42.03 11.3359 38.9194V18.2695H45.1266V38.9194C45.1266 42.03 42.6054 44.5511 39.4948 44.5511Z" fill="#3FFF00"/>
<path d="M39.4937 25.7773C39.1445 25.7773 32.3338 25.7773 31.9847 25.7773C30.9484 25.7773 30.1074 26.6184 30.1074 27.6546C30.1074 28.6908 30.9484 29.5319 31.9847 29.5319C32.3338 29.5319 39.1445 29.5319 39.4937 29.5319C40.53 29.5319 41.371 28.6908 41.371 27.6546C41.371 26.6184 40.53 25.7773 39.4937 25.7773Z" fill="#3FFF00"/>
<path d="M39.4937 33.2871C39.1445 33.2871 32.3338 33.2871 31.9847 33.2871C30.9484 33.2871 30.1074 34.1281 30.1074 35.1644C30.1074 36.2006 30.9484 37.0416 31.9847 37.0416C32.3338 37.0416 39.1445 37.0416 39.4937 37.0416C40.53 37.0416 41.371 36.2006 41.371 35.1644C41.371 34.1281 40.53 33.2871 39.4937 33.2871Z" fill="#3FFF00"/>
<path d="M45.1266 18.2688H11.3359V16.3915C11.3359 13.2809 13.8571 10.7598 16.9677 10.7598H39.4948C42.6054 10.7598 45.1266 13.2809 45.1266 16.3915V18.2688Z" fill="#3FFF00"/>
<path d="M24.4761 37.0409H16.9671C15.9309 37.0409 15.0898 36.1999 15.0898 35.1636V27.6546C15.0898 26.6184 15.9309 25.7773 16.9671 25.7773H24.4761C25.5124 25.7773 26.3534 26.6184 26.3534 27.6546V35.1636C26.3534 36.1999 25.5124 37.0409 24.4761 37.0409Z" fill="#3FFF00"/>
</svg>
