<svg width="13" height="13" viewBox="0 0 13 13" fill="none" xmlns="http://www.w3.org/2000/svg">
<path d="M10.6943 0.353516H1.30674C1.0301 0.353516 0.76479 0.463409 0.569178 0.659022C0.373566 0.854634 0.263672 1.11994 0.263672 1.39658C0.263672 1.67322 0.373566 1.93852 0.569178 2.13414C0.76479 2.32975 1.0301 2.43964 1.30674 2.43964V7.65496C1.30674 8.06992 1.47158 8.46788 1.76499 8.7613C2.05841 9.05471 2.45637 9.21955 2.87133 9.21955H4.91573L3.52188 10.9947C3.4405 11.1031 3.40447 11.2388 3.42143 11.3733C3.43839 11.5077 3.507 11.6303 3.61275 11.715C3.71849 11.7997 3.85305 11.84 3.98795 11.8272C4.12285 11.8145 4.24748 11.7497 4.33547 11.6467L6.00052 9.54812L7.69414 11.6467C7.78213 11.7497 7.90676 11.8145 8.04166 11.8272C8.17656 11.84 8.31112 11.7997 8.41687 11.715C8.52261 11.6303 8.59122 11.5077 8.60818 11.3733C8.62514 11.2388 8.58911 11.1031 8.50773 10.9947L7.08531 9.21955H9.12971C9.54467 9.21955 9.94263 9.05471 10.236 8.7613C10.5295 8.46788 10.6943 8.06992 10.6943 7.65496V2.43964C10.9709 2.43964 11.2363 2.32975 11.4319 2.13414C11.6275 1.93852 11.7374 1.67322 11.7374 1.39658C11.7374 1.11994 11.6275 0.854634 11.4319 0.659022C11.2363 0.463409 10.9709 0.353516 10.6943 0.353516ZM9.65124 7.65496C9.65124 7.79328 9.5963 7.92593 9.49849 8.02374C9.40068 8.12154 9.26803 8.17649 9.12971 8.17649H2.87133C2.73301 8.17649 2.60036 8.12154 2.50255 8.02374C2.40475 7.92593 2.3498 7.79328 2.3498 7.65496V2.43964H9.65124V7.65496Z" fill="white"/>
</svg>
